<svg xmlns="http://www.w3.org/2000/svg" version="1.1" xmlns:xlink="http://www.w3.org/1999/xlink" width="1000" height="1000"><style>
    #light-icon {
      display: inline;
    }
    #dark-icon {
      display: none;
    }

    @media (prefers-color-scheme: dark) {
      #light-icon {
        display: none;
      }
      #dark-icon {
        display: inline;
      }
    }
  </style><g id="light-icon"><svg xmlns="http://www.w3.org/2000/svg" version="1.1" xmlns:xlink="http://www.w3.org/1999/xlink" width="1000" height="1000"><g><g transform="matrix(2.6109660574412534,0,0,2.6109660574412534,-5.684341886080802e-14,-5.684341886080802e-14)"><svg xmlns="http://www.w3.org/2000/svg" version="1.1" xmlns:xlink="http://www.w3.org/1999/xlink" width="383" height="383"><svg width="383" height="383" viewBox="0 0 383 383" fill="none" xmlns="http://www.w3.org/2000/svg">
<rect width="383" height="383" fill="#1C1C1C"></rect>
<path d="M324.811 219.06L318.726 247.758L336.278 218.269L367.981 210.486L340.225 206.985L346.797 174.911L328.496 207.706L296.772 215.165L324.811 219.06Z" fill="white"></path>
<path d="M308.54 214.172L327.664 216.756L325.283 226.233L323.382 236.133L335.256 216.257L356.697 211.007L337.696 208.634L342.377 187.035L329.995 209.14L308.54 214.172Z" fill="black"></path>
<path d="M314.543 213.53L328.885 215.468L327.1 222.576L325.674 230.001L334.58 215.094L350.66 211.156L336.41 209.377L339.92 193.178L330.634 209.756L314.543 213.53Z" fill="#74FD08"></path>
<mask id="path-4-outside-1_253_63" maskUnits="userSpaceOnUse" x="35.7824" y="153.316" width="300.033" height="75.3559" fill="black">
<rect fill="white" x="35.7824" y="153.316" width="300.033" height="75.3559"></rect>
<path d="M58.7723 184.287C60.4766 181.334 62.6556 178.916 65.3092 177.032C67.958 175.09 70.7919 173.994 73.8109 173.743L75.4971 193.993L70.1142 194.441C66.5256 194.74 63.929 195.587 62.3245 196.982C60.777 198.373 60.136 200.663 60.4016 203.853L62.0451 223.59L43.0768 225.17L39.0641 176.98L58.0324 175.401L58.7723 184.287Z"></path>
<path d="M153.052 168.867C158.585 168.503 163.013 170.074 166.336 173.579C169.717 177.08 171.615 181.996 172.031 188.327L173.87 216.303L154.963 217.546L153.281 191.965C153.132 189.684 152.386 187.928 151.045 186.699C149.757 185.409 148.087 184.831 146.034 184.966C143.923 185.105 142.314 185.898 141.206 187.346C140.095 188.736 139.614 190.572 139.764 192.854L141.445 218.434L122.452 219.683L119.281 171.43L138.274 170.182L138.757 177.539C140.09 175.161 141.936 173.178 144.295 171.591C146.711 170 149.63 169.092 153.052 168.867Z"></path>
<path d="M220.284 188.079C220.37 189.39 220.367 190.651 220.275 191.86L189.732 193.867C190.291 198.012 192.167 199.979 195.361 199.769C197.415 199.635 198.836 198.596 199.625 196.654L219.73 195.333C219.27 198.8 218.018 201.975 215.974 204.859C213.983 207.682 211.357 210.003 208.097 211.821C204.89 213.578 201.29 214.588 197.298 214.851C192.507 215.166 188.163 214.449 184.268 212.7C180.429 210.947 177.333 208.286 174.979 204.718C172.678 201.088 171.363 196.764 171.033 191.745C170.703 186.726 171.443 182.295 173.253 178.453C175.116 174.55 177.835 171.478 181.411 169.238C185.045 166.995 189.257 165.715 194.048 165.4C198.839 165.086 203.154 165.804 206.992 167.557C210.884 169.249 213.976 171.853 216.27 175.368C218.62 178.88 219.958 183.116 220.284 188.079ZM200.736 184.809C200.631 183.212 200.039 182.048 198.96 181.317C197.877 180.529 196.566 180.186 195.026 180.287C191.661 180.508 189.8 182.263 189.443 185.551L200.736 184.809Z"></path>
<path d="M290.877 160.153L282.584 209.159L261.195 210.564L253.589 183.741L249.218 211.352L227.829 212.757L213.279 165.253L232.101 164.016L238.051 193.096L242.368 163.341L262.644 162.008L271.183 191.263L273.338 161.306L290.877 160.153Z"></path>
<path d="M309.883 207.502C305.311 207.562 301.243 206.873 297.68 205.434C294.174 203.994 291.374 201.973 289.282 199.372C287.189 196.77 285.978 193.813 285.649 190.502L303.909 190.26C304.157 191.686 304.771 192.735 305.752 193.408C306.79 194.08 308.08 194.406 309.623 194.386C310.595 194.373 311.364 194.163 311.93 193.755C312.496 193.29 312.774 192.743 312.766 192.115C312.751 191.029 312.141 190.265 310.935 189.824C309.728 189.383 307.693 188.895 304.827 188.361C301.332 187.722 298.436 187.017 296.139 186.247C293.899 185.477 291.909 184.131 290.169 182.211C288.486 180.289 287.621 177.614 287.576 174.185C287.536 171.213 288.272 168.516 289.784 166.095C291.351 163.617 293.669 161.671 296.737 160.258C299.805 158.788 303.539 158.024 307.94 157.966C314.455 157.88 319.563 159.412 323.264 162.565C327.021 165.716 329.305 169.859 330.117 174.993L313.228 175.217C312.924 173.906 312.311 172.914 311.387 172.24C310.463 171.509 309.229 171.154 307.686 171.174C306.715 171.187 305.974 171.397 305.465 171.804C304.955 172.154 304.705 172.7 304.715 173.443C304.728 174.415 305.338 175.15 306.545 175.648C307.751 176.09 309.673 176.55 312.308 177.029C315.804 177.669 318.758 178.402 321.17 179.227C323.581 180.053 325.687 181.511 327.487 183.602C329.286 185.636 330.21 188.482 330.258 192.14C330.296 194.998 329.502 197.581 327.875 199.889C326.247 202.197 323.871 204.029 320.745 205.385C317.676 206.741 314.055 207.446 309.883 207.502Z"></path>
<path d="M121.656 197.416C121.621 198.73 121.503 199.985 121.3 201.18L90.7018 200.38C90.8784 204.558 92.5666 206.69 95.7664 206.773C97.8234 206.827 99.3337 205.923 100.297 204.061L120.439 204.589C119.664 207.999 118.126 211.046 115.826 213.731C113.584 216.36 110.757 218.43 107.344 219.941C103.989 221.397 100.312 222.073 96.3122 221.968C91.5124 221.843 87.2531 220.731 83.5343 218.632C79.8725 216.535 77.0332 213.602 75.0162 209.832C73.0579 206.007 72.1445 201.581 72.2761 196.553C72.4077 191.524 73.5506 187.18 75.7048 183.52C77.9177 179.804 80.9073 176.995 84.6737 175.092C88.4973 173.191 92.8089 172.303 97.6086 172.429C102.408 172.554 106.639 173.665 110.301 175.763C114.021 177.804 116.862 180.68 118.823 184.391C120.842 188.103 121.786 192.445 121.656 197.416ZM102.49 192.369C102.532 190.769 102.049 189.555 101.042 188.729C100.036 187.844 98.7611 187.382 97.2183 187.342C93.8471 187.254 91.8332 188.831 91.1765 192.073L102.49 192.369Z"></path>
</mask>
<path d="M58.7723 184.287C60.4766 181.334 62.6556 178.916 65.3092 177.032C67.958 175.09 70.7919 173.994 73.8109 173.743L75.4971 193.993L70.1142 194.441C66.5256 194.74 63.929 195.587 62.3245 196.982C60.777 198.373 60.136 200.663 60.4016 203.853L62.0451 223.59L43.0768 225.17L39.0641 176.98L58.0324 175.401L58.7723 184.287Z" fill="white"></path>
<path d="M153.052 168.867C158.585 168.503 163.013 170.074 166.336 173.579C169.717 177.08 171.615 181.996 172.031 188.327L173.87 216.303L154.963 217.546L153.281 191.965C153.132 189.684 152.386 187.928 151.045 186.699C149.757 185.409 148.087 184.831 146.034 184.966C143.923 185.105 142.314 185.898 141.206 187.346C140.095 188.736 139.614 190.572 139.764 192.854L141.445 218.434L122.452 219.683L119.281 171.43L138.274 170.182L138.757 177.539C140.09 175.161 141.936 173.178 144.295 171.591C146.711 170 149.63 169.092 153.052 168.867Z" fill="white"></path>
<path d="M220.284 188.079C220.37 189.39 220.367 190.651 220.275 191.86L189.732 193.867C190.291 198.012 192.167 199.979 195.361 199.769C197.415 199.635 198.836 198.596 199.625 196.654L219.73 195.333C219.27 198.8 218.018 201.975 215.974 204.859C213.983 207.682 211.357 210.003 208.097 211.821C204.89 213.578 201.29 214.588 197.298 214.851C192.507 215.166 188.163 214.449 184.268 212.7C180.429 210.947 177.333 208.286 174.979 204.718C172.678 201.088 171.363 196.764 171.033 191.745C170.703 186.726 171.443 182.295 173.253 178.453C175.116 174.55 177.835 171.478 181.411 169.238C185.045 166.995 189.257 165.715 194.048 165.4C198.839 165.086 203.154 165.804 206.992 167.557C210.884 169.249 213.976 171.853 216.27 175.368C218.62 178.88 219.958 183.116 220.284 188.079ZM200.736 184.809C200.631 183.212 200.039 182.048 198.96 181.317C197.877 180.529 196.566 180.186 195.026 180.287C191.661 180.508 189.8 182.263 189.443 185.551L200.736 184.809Z" fill="white"></path>
<path d="M290.877 160.153L282.584 209.159L261.195 210.564L253.589 183.741L249.218 211.352L227.829 212.757L213.279 165.253L232.101 164.016L238.051 193.096L242.368 163.341L262.644 162.008L271.183 191.263L273.338 161.306L290.877 160.153Z" fill="white"></path>
<path d="M309.883 207.502C305.311 207.562 301.243 206.873 297.68 205.434C294.174 203.994 291.374 201.973 289.282 199.372C287.189 196.77 285.978 193.813 285.649 190.502L303.909 190.26C304.157 191.686 304.771 192.735 305.752 193.408C306.79 194.08 308.08 194.406 309.623 194.386C310.595 194.373 311.364 194.163 311.93 193.755C312.496 193.29 312.774 192.743 312.766 192.115C312.751 191.029 312.141 190.265 310.935 189.824C309.728 189.383 307.693 188.895 304.827 188.361C301.332 187.722 298.436 187.017 296.139 186.247C293.899 185.477 291.909 184.131 290.169 182.211C288.486 180.289 287.621 177.614 287.576 174.185C287.536 171.213 288.272 168.516 289.784 166.095C291.351 163.617 293.669 161.671 296.737 160.258C299.805 158.788 303.539 158.024 307.94 157.966C314.455 157.88 319.563 159.412 323.264 162.565C327.021 165.716 329.305 169.859 330.117 174.993L313.228 175.217C312.924 173.906 312.311 172.914 311.387 172.24C310.463 171.509 309.229 171.154 307.686 171.174C306.715 171.187 305.974 171.397 305.465 171.804C304.955 172.154 304.705 172.7 304.715 173.443C304.728 174.415 305.338 175.15 306.545 175.648C307.751 176.09 309.673 176.55 312.308 177.029C315.804 177.669 318.758 178.402 321.17 179.227C323.581 180.053 325.687 181.511 327.487 183.602C329.286 185.636 330.21 188.482 330.258 192.14C330.296 194.998 329.502 197.581 327.875 199.889C326.247 202.197 323.871 204.029 320.745 205.385C317.676 206.741 314.055 207.446 309.883 207.502Z" fill="white"></path>
<path d="M121.656 197.416C121.621 198.73 121.503 199.985 121.3 201.18L90.7018 200.38C90.8784 204.558 92.5666 206.69 95.7664 206.773C97.8234 206.827 99.3337 205.923 100.297 204.061L120.439 204.589C119.664 207.999 118.126 211.046 115.826 213.731C113.584 216.36 110.757 218.43 107.344 219.941C103.989 221.397 100.312 222.073 96.3122 221.968C91.5124 221.843 87.2531 220.731 83.5343 218.632C79.8725 216.535 77.0332 213.602 75.0162 209.832C73.0579 206.007 72.1445 201.581 72.2761 196.553C72.4077 191.524 73.5506 187.18 75.7048 183.52C77.9177 179.804 80.9073 176.995 84.6737 175.092C88.4973 173.191 92.8089 172.303 97.6086 172.429C102.408 172.554 106.639 173.665 110.301 175.763C114.021 177.804 116.862 180.68 118.823 184.391C120.842 188.103 121.786 192.445 121.656 197.416ZM102.49 192.369C102.532 190.769 102.049 189.555 101.042 188.729C100.036 187.844 98.7611 187.382 97.2183 187.342C93.8471 187.254 91.8332 188.831 91.1765 192.073L102.49 192.369Z" fill="white"></path>
<path d="M58.7723 184.287C60.4766 181.334 62.6556 178.916 65.3092 177.032C67.958 175.09 70.7919 173.994 73.8109 173.743L75.4971 193.993L70.1142 194.441C66.5256 194.74 63.929 195.587 62.3245 196.982C60.777 198.373 60.136 200.663 60.4016 203.853L62.0451 223.59L43.0768 225.17L39.0641 176.98L58.0324 175.401L58.7723 184.287Z" stroke="white" stroke-width="5.13405" mask="url(#path-4-outside-1_253_63)"></path>
<path d="M153.052 168.867C158.585 168.503 163.013 170.074 166.336 173.579C169.717 177.08 171.615 181.996 172.031 188.327L173.87 216.303L154.963 217.546L153.281 191.965C153.132 189.684 152.386 187.928 151.045 186.699C149.757 185.409 148.087 184.831 146.034 184.966C143.923 185.105 142.314 185.898 141.206 187.346C140.095 188.736 139.614 190.572 139.764 192.854L141.445 218.434L122.452 219.683L119.281 171.43L138.274 170.182L138.757 177.539C140.09 175.161 141.936 173.178 144.295 171.591C146.711 170 149.63 169.092 153.052 168.867Z" stroke="white" stroke-width="5.13405" mask="url(#path-4-outside-1_253_63)"></path>
<path d="M220.284 188.079C220.37 189.39 220.367 190.651 220.275 191.86L189.732 193.867C190.291 198.012 192.167 199.979 195.361 199.769C197.415 199.635 198.836 198.596 199.625 196.654L219.73 195.333C219.27 198.8 218.018 201.975 215.974 204.859C213.983 207.682 211.357 210.003 208.097 211.821C204.89 213.578 201.29 214.588 197.298 214.851C192.507 215.166 188.163 214.449 184.268 212.7C180.429 210.947 177.333 208.286 174.979 204.718C172.678 201.088 171.363 196.764 171.033 191.745C170.703 186.726 171.443 182.295 173.253 178.453C175.116 174.55 177.835 171.478 181.411 169.238C185.045 166.995 189.257 165.715 194.048 165.4C198.839 165.086 203.154 165.804 206.992 167.557C210.884 169.249 213.976 171.853 216.27 175.368C218.62 178.88 219.958 183.116 220.284 188.079ZM200.736 184.809C200.631 183.212 200.039 182.048 198.96 181.317C197.877 180.529 196.566 180.186 195.026 180.287C191.661 180.508 189.8 182.263 189.443 185.551L200.736 184.809Z" stroke="white" stroke-width="5.13405" mask="url(#path-4-outside-1_253_63)"></path>
<path d="M290.877 160.153L282.584 209.159L261.195 210.564L253.589 183.741L249.218 211.352L227.829 212.757L213.279 165.253L232.101 164.016L238.051 193.096L242.368 163.341L262.644 162.008L271.183 191.263L273.338 161.306L290.877 160.153Z" stroke="white" stroke-width="5.13405" mask="url(#path-4-outside-1_253_63)"></path>
<path d="M309.883 207.502C305.311 207.562 301.243 206.873 297.68 205.434C294.174 203.994 291.374 201.973 289.282 199.372C287.189 196.77 285.978 193.813 285.649 190.502L303.909 190.26C304.157 191.686 304.771 192.735 305.752 193.408C306.79 194.08 308.08 194.406 309.623 194.386C310.595 194.373 311.364 194.163 311.93 193.755C312.496 193.29 312.774 192.743 312.766 192.115C312.751 191.029 312.141 190.265 310.935 189.824C309.728 189.383 307.693 188.895 304.827 188.361C301.332 187.722 298.436 187.017 296.139 186.247C293.899 185.477 291.909 184.131 290.169 182.211C288.486 180.289 287.621 177.614 287.576 174.185C287.536 171.213 288.272 168.516 289.784 166.095C291.351 163.617 293.669 161.671 296.737 160.258C299.805 158.788 303.539 158.024 307.94 157.966C314.455 157.88 319.563 159.412 323.264 162.565C327.021 165.716 329.305 169.859 330.117 174.993L313.228 175.217C312.924 173.906 312.311 172.914 311.387 172.24C310.463 171.509 309.229 171.154 307.686 171.174C306.715 171.187 305.974 171.397 305.465 171.804C304.955 172.154 304.705 172.7 304.715 173.443C304.728 174.415 305.338 175.15 306.545 175.648C307.751 176.09 309.673 176.55 312.308 177.029C315.804 177.669 318.758 178.402 321.17 179.227C323.581 180.053 325.687 181.511 327.487 183.602C329.286 185.636 330.21 188.482 330.258 192.14C330.296 194.998 329.502 197.581 327.875 199.889C326.247 202.197 323.871 204.029 320.745 205.385C317.676 206.741 314.055 207.446 309.883 207.502Z" stroke="white" stroke-width="5.13405" mask="url(#path-4-outside-1_253_63)"></path>
<path d="M121.656 197.416C121.621 198.73 121.503 199.985 121.3 201.18L90.7018 200.38C90.8784 204.558 92.5666 206.69 95.7664 206.773C97.8234 206.827 99.3337 205.923 100.297 204.061L120.439 204.589C119.664 207.999 118.126 211.046 115.826 213.731C113.584 216.36 110.757 218.43 107.344 219.941C103.989 221.397 100.312 222.073 96.3122 221.968C91.5124 221.843 87.2531 220.731 83.5343 218.632C79.8725 216.535 77.0332 213.602 75.0162 209.832C73.0579 206.007 72.1445 201.581 72.2761 196.553C72.4077 191.524 73.5506 187.18 75.7048 183.52C77.9177 179.804 80.9073 176.995 84.6737 175.092C88.4973 173.191 92.8089 172.303 97.6086 172.429C102.408 172.554 106.639 173.665 110.301 175.763C114.021 177.804 116.862 180.68 118.823 184.391C120.842 188.103 121.786 192.445 121.656 197.416ZM102.49 192.369C102.532 190.769 102.049 189.555 101.042 188.729C100.036 187.844 98.7611 187.382 97.2183 187.342C93.8471 187.254 91.8332 188.831 91.1765 192.073L102.49 192.369Z" stroke="white" stroke-width="5.13405" mask="url(#path-4-outside-1_253_63)"></path>
<mask id="path-5-outside-2_253_63" maskUnits="userSpaceOnUse" x="36.8458" y="154.445" width="296.908" height="73.1635" fill="black">
<rect fill="white" x="36.8458" y="154.445" width="296.908" height="73.1635"></rect>
<path d="M58.7723 184.287C60.4766 181.334 62.6556 178.916 65.3092 177.032C67.958 175.09 70.7919 173.994 73.8109 173.743L75.4971 193.993L70.1142 194.441C66.5256 194.74 63.929 195.587 62.3245 196.982C60.777 198.373 60.136 200.663 60.4016 203.853L62.0451 223.59L43.0768 225.17L39.0641 176.98L58.0324 175.401L58.7723 184.287Z"></path>
<path d="M153.052 168.867C158.585 168.503 163.013 170.074 166.336 173.579C169.717 177.08 171.615 181.996 172.031 188.327L173.87 216.303L154.963 217.546L153.281 191.965C153.132 189.684 152.386 187.928 151.045 186.699C149.757 185.409 148.087 184.831 146.034 184.966C143.923 185.105 142.314 185.898 141.206 187.346C140.095 188.736 139.614 190.572 139.764 192.854L141.445 218.434L122.452 219.683L119.281 171.43L138.274 170.182L138.757 177.539C140.09 175.161 141.936 173.178 144.295 171.591C146.711 170 149.63 169.092 153.052 168.867Z"></path>
<path d="M220.284 188.079C220.37 189.39 220.367 190.651 220.275 191.86L189.732 193.867C190.291 198.012 192.167 199.979 195.361 199.769C197.415 199.635 198.836 198.596 199.625 196.654L219.73 195.333C219.27 198.8 218.018 201.975 215.974 204.859C213.983 207.682 211.357 210.003 208.097 211.821C204.89 213.578 201.29 214.588 197.298 214.851C192.507 215.166 188.163 214.449 184.268 212.7C180.429 210.947 177.333 208.286 174.979 204.718C172.678 201.088 171.363 196.764 171.033 191.745C170.703 186.726 171.443 182.295 173.253 178.453C175.116 174.55 177.835 171.478 181.411 169.238C185.045 166.995 189.257 165.715 194.048 165.4C198.839 165.086 203.154 165.804 206.992 167.557C210.884 169.249 213.976 171.853 216.27 175.368C218.62 178.88 219.958 183.116 220.284 188.079ZM200.736 184.809C200.631 183.212 200.039 182.048 198.96 181.317C197.877 180.529 196.566 180.186 195.026 180.287C191.661 180.508 189.8 182.263 189.443 185.551L200.736 184.809Z"></path>
<path d="M290.877 160.153L282.584 209.159L261.195 210.564L253.589 183.741L249.218 211.352L227.829 212.757L213.279 165.253L232.101 164.016L238.051 193.096L242.368 163.341L262.644 162.008L271.183 191.263L273.338 161.306L290.877 160.153Z"></path>
<path d="M309.883 207.502C305.311 207.562 301.243 206.873 297.68 205.434C294.174 203.994 291.374 201.973 289.282 199.372C287.189 196.77 285.978 193.813 285.649 190.502L303.909 190.26C304.157 191.686 304.771 192.735 305.752 193.408C306.79 194.08 308.08 194.406 309.623 194.386C310.595 194.373 311.364 194.163 311.93 193.755C312.496 193.29 312.774 192.743 312.766 192.115C312.751 191.029 312.141 190.265 310.935 189.824C309.728 189.383 307.693 188.895 304.827 188.361C301.332 187.722 298.436 187.017 296.139 186.247C293.899 185.477 291.909 184.131 290.169 182.211C288.486 180.289 287.621 177.614 287.576 174.185C287.536 171.213 288.272 168.516 289.784 166.095C291.351 163.617 293.669 161.671 296.737 160.258C299.805 158.788 303.539 158.024 307.94 157.966C314.455 157.88 319.563 159.412 323.264 162.565C327.021 165.716 329.305 169.859 330.117 174.993L313.228 175.217C312.924 173.906 312.311 172.914 311.387 172.24C310.463 171.509 309.229 171.154 307.686 171.174C306.715 171.187 305.974 171.397 305.465 171.804C304.955 172.154 304.705 172.7 304.715 173.443C304.728 174.415 305.338 175.15 306.545 175.648C307.751 176.09 309.673 176.55 312.308 177.029C315.804 177.669 318.758 178.402 321.17 179.227C323.581 180.053 325.687 181.511 327.487 183.602C329.286 185.636 330.21 188.482 330.258 192.14C330.296 194.998 329.502 197.581 327.875 199.889C326.247 202.197 323.871 204.029 320.745 205.385C317.676 206.741 314.055 207.446 309.883 207.502Z"></path>
<path d="M121.656 197.416C121.621 198.73 121.503 199.985 121.3 201.18L90.7018 200.38C90.8784 204.558 92.5666 206.69 95.7664 206.773C97.8234 206.827 99.3337 205.923 100.297 204.061L120.439 204.589C119.664 207.999 118.126 211.046 115.826 213.731C113.584 216.36 110.757 218.43 107.344 219.941C103.989 221.397 100.312 222.073 96.3122 221.968C91.5124 221.843 87.2531 220.731 83.5343 218.632C79.8725 216.535 77.0332 213.602 75.0162 209.832C73.0579 206.007 72.1445 201.581 72.2761 196.553C72.4077 191.524 73.5506 187.18 75.7048 183.52C77.9177 179.804 80.9073 176.995 84.6737 175.092C88.4973 173.191 92.8089 172.303 97.6086 172.429C102.408 172.554 106.639 173.665 110.301 175.763C114.021 177.804 116.862 180.68 118.823 184.391C120.842 188.103 121.786 192.445 121.656 197.416ZM102.49 192.369C102.532 190.769 102.049 189.555 101.042 188.729C100.036 187.844 98.7611 187.382 97.2183 187.342C93.8471 187.254 91.8332 188.831 91.1765 192.073L102.49 192.369Z"></path>
</mask>
<path d="M58.7723 184.287C60.4766 181.334 62.6556 178.916 65.3092 177.032C67.958 175.09 70.7919 173.994 73.8109 173.743L75.4971 193.993L70.1142 194.441C66.5256 194.74 63.929 195.587 62.3245 196.982C60.777 198.373 60.136 200.663 60.4016 203.853L62.0451 223.59L43.0768 225.17L39.0641 176.98L58.0324 175.401L58.7723 184.287Z" fill="white"></path>
<path d="M153.052 168.867C158.585 168.503 163.013 170.074 166.336 173.579C169.717 177.08 171.615 181.996 172.031 188.327L173.87 216.303L154.963 217.546L153.281 191.965C153.132 189.684 152.386 187.928 151.045 186.699C149.757 185.409 148.087 184.831 146.034 184.966C143.923 185.105 142.314 185.898 141.206 187.346C140.095 188.736 139.614 190.572 139.764 192.854L141.445 218.434L122.452 219.683L119.281 171.43L138.274 170.182L138.757 177.539C140.09 175.161 141.936 173.178 144.295 171.591C146.711 170 149.63 169.092 153.052 168.867Z" fill="white"></path>
<path d="M220.284 188.079C220.37 189.39 220.367 190.651 220.275 191.86L189.732 193.867C190.291 198.012 192.167 199.979 195.361 199.769C197.415 199.635 198.836 198.596 199.625 196.654L219.73 195.333C219.27 198.8 218.018 201.975 215.974 204.859C213.983 207.682 211.357 210.003 208.097 211.821C204.89 213.578 201.29 214.588 197.298 214.851C192.507 215.166 188.163 214.449 184.268 212.7C180.429 210.947 177.333 208.286 174.979 204.718C172.678 201.088 171.363 196.764 171.033 191.745C170.703 186.726 171.443 182.295 173.253 178.453C175.116 174.55 177.835 171.478 181.411 169.238C185.045 166.995 189.257 165.715 194.048 165.4C198.839 165.086 203.154 165.804 206.992 167.557C210.884 169.249 213.976 171.853 216.27 175.368C218.62 178.88 219.958 183.116 220.284 188.079ZM200.736 184.809C200.631 183.212 200.039 182.048 198.96 181.317C197.877 180.529 196.566 180.186 195.026 180.287C191.661 180.508 189.8 182.263 189.443 185.551L200.736 184.809Z" fill="white"></path>
<path d="M290.877 160.153L282.584 209.159L261.195 210.564L253.589 183.741L249.218 211.352L227.829 212.757L213.279 165.253L232.101 164.016L238.051 193.096L242.368 163.341L262.644 162.008L271.183 191.263L273.338 161.306L290.877 160.153Z" fill="white"></path>
<path d="M309.883 207.502C305.311 207.562 301.243 206.873 297.68 205.434C294.174 203.994 291.374 201.973 289.282 199.372C287.189 196.77 285.978 193.813 285.649 190.502L303.909 190.26C304.157 191.686 304.771 192.735 305.752 193.408C306.79 194.08 308.08 194.406 309.623 194.386C310.595 194.373 311.364 194.163 311.93 193.755C312.496 193.29 312.774 192.743 312.766 192.115C312.751 191.029 312.141 190.265 310.935 189.824C309.728 189.383 307.693 188.895 304.827 188.361C301.332 187.722 298.436 187.017 296.139 186.247C293.899 185.477 291.909 184.131 290.169 182.211C288.486 180.289 287.621 177.614 287.576 174.185C287.536 171.213 288.272 168.516 289.784 166.095C291.351 163.617 293.669 161.671 296.737 160.258C299.805 158.788 303.539 158.024 307.94 157.966C314.455 157.88 319.563 159.412 323.264 162.565C327.021 165.716 329.305 169.859 330.117 174.993L313.228 175.217C312.924 173.906 312.311 172.914 311.387 172.24C310.463 171.509 309.229 171.154 307.686 171.174C306.715 171.187 305.974 171.397 305.465 171.804C304.955 172.154 304.705 172.7 304.715 173.443C304.728 174.415 305.338 175.15 306.545 175.648C307.751 176.09 309.673 176.55 312.308 177.029C315.804 177.669 318.758 178.402 321.17 179.227C323.581 180.053 325.687 181.511 327.487 183.602C329.286 185.636 330.21 188.482 330.258 192.14C330.296 194.998 329.502 197.581 327.875 199.889C326.247 202.197 323.871 204.029 320.745 205.385C317.676 206.741 314.055 207.446 309.883 207.502Z" fill="white"></path>
<path d="M121.656 197.416C121.621 198.73 121.503 199.985 121.3 201.18L90.7018 200.38C90.8784 204.558 92.5666 206.69 95.7664 206.773C97.8234 206.827 99.3337 205.923 100.297 204.061L120.439 204.589C119.664 207.999 118.126 211.046 115.826 213.731C113.584 216.36 110.757 218.43 107.344 219.941C103.989 221.397 100.312 222.073 96.3122 221.968C91.5124 221.843 87.2531 220.731 83.5343 218.632C79.8725 216.535 77.0332 213.602 75.0162 209.832C73.0579 206.007 72.1445 201.581 72.2761 196.553C72.4077 191.524 73.5506 187.18 75.7048 183.52C77.9177 179.804 80.9073 176.995 84.6737 175.092C88.4973 173.191 92.8089 172.303 97.6086 172.429C102.408 172.554 106.639 173.665 110.301 175.763C114.021 177.804 116.862 180.68 118.823 184.391C120.842 188.103 121.786 192.445 121.656 197.416ZM102.49 192.369C102.532 190.769 102.049 189.555 101.042 188.729C100.036 187.844 98.7611 187.382 97.2183 187.342C93.8471 187.254 91.8332 188.831 91.1765 192.073L102.49 192.369Z" fill="white"></path>
<path d="M58.7723 184.287C60.4766 181.334 62.6556 178.916 65.3092 177.032C67.958 175.09 70.7919 173.994 73.8109 173.743L75.4971 193.993L70.1142 194.441C66.5256 194.74 63.929 195.587 62.3245 196.982C60.777 198.373 60.136 200.663 60.4016 203.853L62.0451 223.59L43.0768 225.17L39.0641 176.98L58.0324 175.401L58.7723 184.287Z" stroke="black" stroke-width="2.05362" mask="url(#path-5-outside-2_253_63)"></path>
<path d="M153.052 168.867C158.585 168.503 163.013 170.074 166.336 173.579C169.717 177.08 171.615 181.996 172.031 188.327L173.87 216.303L154.963 217.546L153.281 191.965C153.132 189.684 152.386 187.928 151.045 186.699C149.757 185.409 148.087 184.831 146.034 184.966C143.923 185.105 142.314 185.898 141.206 187.346C140.095 188.736 139.614 190.572 139.764 192.854L141.445 218.434L122.452 219.683L119.281 171.43L138.274 170.182L138.757 177.539C140.09 175.161 141.936 173.178 144.295 171.591C146.711 170 149.63 169.092 153.052 168.867Z" stroke="black" stroke-width="2.05362" mask="url(#path-5-outside-2_253_63)"></path>
<path d="M220.284 188.079C220.37 189.39 220.367 190.651 220.275 191.86L189.732 193.867C190.291 198.012 192.167 199.979 195.361 199.769C197.415 199.635 198.836 198.596 199.625 196.654L219.73 195.333C219.27 198.8 218.018 201.975 215.974 204.859C213.983 207.682 211.357 210.003 208.097 211.821C204.89 213.578 201.29 214.588 197.298 214.851C192.507 215.166 188.163 214.449 184.268 212.7C180.429 210.947 177.333 208.286 174.979 204.718C172.678 201.088 171.363 196.764 171.033 191.745C170.703 186.726 171.443 182.295 173.253 178.453C175.116 174.55 177.835 171.478 181.411 169.238C185.045 166.995 189.257 165.715 194.048 165.4C198.839 165.086 203.154 165.804 206.992 167.557C210.884 169.249 213.976 171.853 216.27 175.368C218.62 178.88 219.958 183.116 220.284 188.079ZM200.736 184.809C200.631 183.212 200.039 182.048 198.96 181.317C197.877 180.529 196.566 180.186 195.026 180.287C191.661 180.508 189.8 182.263 189.443 185.551L200.736 184.809Z" stroke="black" stroke-width="2.05362" mask="url(#path-5-outside-2_253_63)"></path>
<path d="M290.877 160.153L282.584 209.159L261.195 210.564L253.589 183.741L249.218 211.352L227.829 212.757L213.279 165.253L232.101 164.016L238.051 193.096L242.368 163.341L262.644 162.008L271.183 191.263L273.338 161.306L290.877 160.153Z" stroke="black" stroke-width="2.05362" mask="url(#path-5-outside-2_253_63)"></path>
<path d="M309.883 207.502C305.311 207.562 301.243 206.873 297.68 205.434C294.174 203.994 291.374 201.973 289.282 199.372C287.189 196.77 285.978 193.813 285.649 190.502L303.909 190.26C304.157 191.686 304.771 192.735 305.752 193.408C306.79 194.08 308.08 194.406 309.623 194.386C310.595 194.373 311.364 194.163 311.93 193.755C312.496 193.29 312.774 192.743 312.766 192.115C312.751 191.029 312.141 190.265 310.935 189.824C309.728 189.383 307.693 188.895 304.827 188.361C301.332 187.722 298.436 187.017 296.139 186.247C293.899 185.477 291.909 184.131 290.169 182.211C288.486 180.289 287.621 177.614 287.576 174.185C287.536 171.213 288.272 168.516 289.784 166.095C291.351 163.617 293.669 161.671 296.737 160.258C299.805 158.788 303.539 158.024 307.94 157.966C314.455 157.88 319.563 159.412 323.264 162.565C327.021 165.716 329.305 169.859 330.117 174.993L313.228 175.217C312.924 173.906 312.311 172.914 311.387 172.24C310.463 171.509 309.229 171.154 307.686 171.174C306.715 171.187 305.974 171.397 305.465 171.804C304.955 172.154 304.705 172.7 304.715 173.443C304.728 174.415 305.338 175.15 306.545 175.648C307.751 176.09 309.673 176.55 312.308 177.029C315.804 177.669 318.758 178.402 321.17 179.227C323.581 180.053 325.687 181.511 327.487 183.602C329.286 185.636 330.21 188.482 330.258 192.14C330.296 194.998 329.502 197.581 327.875 199.889C326.247 202.197 323.871 204.029 320.745 205.385C317.676 206.741 314.055 207.446 309.883 207.502Z" stroke="black" stroke-width="2.05362" mask="url(#path-5-outside-2_253_63)"></path>
<path d="M121.656 197.416C121.621 198.73 121.503 199.985 121.3 201.18L90.7018 200.38C90.8784 204.558 92.5666 206.69 95.7664 206.773C97.8234 206.827 99.3337 205.923 100.297 204.061L120.439 204.589C119.664 207.999 118.126 211.046 115.826 213.731C113.584 216.36 110.757 218.43 107.344 219.941C103.989 221.397 100.312 222.073 96.3122 221.968C91.5124 221.843 87.2531 220.731 83.5343 218.632C79.8725 216.535 77.0332 213.602 75.0162 209.832C73.0579 206.007 72.1445 201.581 72.2761 196.553C72.4077 191.524 73.5506 187.18 75.7048 183.52C77.9177 179.804 80.9073 176.995 84.6737 175.092C88.4973 173.191 92.8089 172.303 97.6086 172.429C102.408 172.554 106.639 173.665 110.301 175.763C114.021 177.804 116.862 180.68 118.823 184.391C120.842 188.103 121.786 192.445 121.656 197.416ZM102.49 192.369C102.532 190.769 102.049 189.555 101.042 188.729C100.036 187.844 98.7611 187.382 97.2183 187.342C93.8471 187.254 91.8332 188.831 91.1765 192.073L102.49 192.369Z" stroke="black" stroke-width="2.05362" mask="url(#path-5-outside-2_253_63)"></path>
<rect x="82.7073" y="226.481" width="222.818" height="5.64745" transform="rotate(-3.76 82.7073 226.481)" fill="white" stroke="white" stroke-width="2.56702"></rect>
<rect x="83.5263" y="227.199" width="221.277" height="4.10724" transform="rotate(-3.76 83.5263 227.199)" fill="white" stroke="black" stroke-width="1.02681"></rect>
</svg></svg></g></g></svg></g><g id="dark-icon"><svg xmlns="http://www.w3.org/2000/svg" version="1.1" xmlns:xlink="http://www.w3.org/1999/xlink" width="1000" height="1000"><g><g transform="matrix(2.6109660574412534,0,0,2.6109660574412534,-5.684341886080802e-14,-5.684341886080802e-14)"><svg xmlns="http://www.w3.org/2000/svg" version="1.1" xmlns:xlink="http://www.w3.org/1999/xlink" width="383" height="383"><svg width="383" height="383" viewBox="0 0 383 383" fill="none" xmlns="http://www.w3.org/2000/svg">
<rect x="0.5" y="0.5" width="382" height="382" fill="white"></rect>
<rect x="0.5" y="0.5" width="382" height="382" stroke="white"></rect>
<path d="M325.837 222.655L319.751 251.353L337.303 221.864L369.007 214.08L341.25 210.58L347.823 178.506L329.522 211.301L297.797 218.76L325.837 222.655Z" fill="black"></path>
<path d="M309.566 217.766L328.689 220.351L326.308 229.827L324.407 239.728L336.281 219.852L357.722 214.602L338.721 212.229L343.402 190.63L331.021 212.735L309.566 217.766Z" fill="white"></path>
<path d="M315.57 217.125L329.913 219.063L328.127 226.17L326.701 233.596L335.607 218.689L351.687 214.751L337.437 212.971L340.947 196.772L331.662 213.351L315.57 217.125Z" fill="#74FD08"></path>
<mask id="path-5-outside-1_253_53" maskUnits="userSpaceOnUse" x="36.8097" y="156.91" width="300.033" height="75.3559" fill="black">
<rect fill="white" x="36.8097" y="156.91" width="300.033" height="75.3559"></rect>
<path d="M59.7997 187.881C61.504 184.929 63.6829 182.511 66.3365 180.626C68.9853 178.685 71.8192 177.589 74.8382 177.337L76.5244 197.587L71.1415 198.035C67.5529 198.334 64.9564 199.181 63.3519 200.577C61.8043 201.968 61.1634 204.258 61.429 207.448L63.0725 227.185L44.1042 228.765L40.0914 180.575L59.0597 178.995L59.7997 187.881Z"></path>
<path d="M154.08 172.462C159.612 172.098 164.04 173.669 167.364 177.174C170.744 180.675 172.643 185.591 173.059 191.922L174.897 219.898L155.99 221.141L154.309 195.56C154.159 193.279 153.413 191.523 152.072 190.294C150.785 189.004 149.114 188.426 147.061 188.561C144.951 188.7 143.341 189.493 142.234 190.94C141.122 192.331 140.641 194.167 140.791 196.448L142.472 222.029L123.479 223.277L120.308 175.025L139.301 173.777L139.785 181.134C141.118 178.755 142.964 176.772 145.323 175.185C147.738 173.594 150.657 172.687 154.08 172.462Z"></path>
<path d="M221.311 191.673C221.398 192.985 221.395 194.246 221.302 195.455L190.759 197.462C191.318 201.607 193.195 203.574 196.389 203.364C198.442 203.229 199.863 202.191 200.652 200.249L220.757 198.927C220.298 202.394 219.046 205.57 217.001 208.454C215.01 211.277 212.384 213.598 209.124 215.416C205.917 217.173 202.317 218.183 198.325 218.445C193.534 218.76 189.191 218.043 185.295 216.294C181.456 214.542 178.36 211.881 176.006 208.313C173.706 204.683 172.39 200.359 172.06 195.34C171.731 190.32 172.47 185.89 174.28 182.047C176.143 178.144 178.863 175.073 182.439 172.833C186.072 170.589 190.284 169.31 195.075 168.995C199.866 168.68 204.181 169.399 208.019 171.152C211.911 172.844 215.004 175.447 217.297 178.963C219.647 182.474 220.985 186.711 221.311 191.673ZM201.764 188.404C201.659 186.807 201.067 185.643 199.988 184.912C198.905 184.124 197.593 183.78 196.053 183.882C192.688 184.103 190.827 185.858 190.471 189.146L201.764 188.404Z"></path>
<path d="M291.904 163.748L283.611 212.754L262.222 214.159L254.617 187.335L250.245 214.946L228.856 216.352L214.307 168.847L233.128 167.61L239.078 196.691L243.395 166.936L263.671 165.603L272.21 194.857L274.366 164.9L291.904 163.748Z"></path>
<path d="M310.91 211.096C306.338 211.157 302.27 210.468 298.707 209.029C295.201 207.589 292.402 205.568 290.309 202.966C288.217 200.365 287.006 197.408 286.676 194.097L304.937 193.855C305.184 195.281 305.798 196.33 306.779 197.003C307.817 197.675 309.108 198.001 310.651 197.981C311.622 197.968 312.391 197.757 312.957 197.35C313.523 196.885 313.802 196.338 313.793 195.709C313.779 194.624 313.168 193.86 311.962 193.419C310.756 192.977 308.72 192.49 305.855 191.956C302.359 191.317 299.463 190.612 297.166 189.842C294.927 189.071 292.937 187.726 291.196 185.805C289.513 183.884 288.649 181.209 288.603 177.78C288.564 174.808 289.3 172.111 290.811 169.69C292.379 167.211 294.697 165.266 297.765 163.853C300.832 162.383 304.566 161.619 308.967 161.561C315.483 161.474 320.591 163.007 324.291 166.159C328.048 169.311 330.333 173.453 331.144 178.587L314.255 178.811C313.952 177.501 313.338 176.508 312.415 175.835C311.491 175.104 310.257 174.749 308.714 174.769C307.742 174.782 307.002 174.992 306.493 175.399C305.983 175.748 305.733 176.295 305.743 177.038C305.755 178.009 306.365 178.744 307.573 179.243C308.779 179.684 310.7 180.145 313.336 180.624C316.831 181.264 319.785 181.996 322.197 182.822C324.609 183.647 326.715 185.106 328.514 187.197C330.313 189.231 331.237 192.077 331.286 195.735C331.324 198.592 330.529 201.175 328.902 203.483C327.275 205.792 324.898 207.624 321.772 208.98C318.703 210.335 315.083 211.041 310.91 211.096Z"></path>
<path d="M122.683 201.011C122.649 202.325 122.53 203.58 122.327 204.775L91.7292 203.974C91.9057 208.153 93.5939 210.284 96.7937 210.368C98.8507 210.422 100.361 209.518 101.325 207.656L121.466 208.183C120.691 211.594 119.153 214.641 116.853 217.326C114.611 219.954 111.784 222.024 108.371 223.536C105.016 224.992 101.339 225.668 97.3395 225.563C92.5398 225.438 88.2805 224.326 84.5616 222.227C80.8999 220.13 78.0605 217.197 76.0436 213.427C74.0852 209.602 73.1719 205.176 73.3035 200.147C73.435 195.119 74.5779 190.775 76.7322 187.114C78.945 183.399 81.9347 180.589 85.7011 178.687C89.5246 176.785 93.8362 175.898 98.636 176.023C103.436 176.149 107.666 177.26 111.328 179.357C115.048 181.399 117.889 184.275 119.851 187.986C121.869 191.698 122.813 196.04 122.683 201.011ZM103.518 195.963C103.559 194.363 103.077 193.15 102.069 192.323C101.063 191.439 99.7884 190.977 98.2457 190.937C94.8744 190.848 92.8605 192.425 92.2039 195.667L103.518 195.963Z"></path>
</mask>
<path d="M59.7997 187.881C61.504 184.929 63.6829 182.511 66.3365 180.626C68.9853 178.685 71.8192 177.589 74.8382 177.337L76.5244 197.587L71.1415 198.035C67.5529 198.334 64.9564 199.181 63.3519 200.577C61.8043 201.968 61.1634 204.258 61.429 207.448L63.0725 227.185L44.1042 228.765L40.0914 180.575L59.0597 178.995L59.7997 187.881Z" fill="black"></path>
<path d="M154.08 172.462C159.612 172.098 164.04 173.669 167.364 177.174C170.744 180.675 172.643 185.591 173.059 191.922L174.897 219.898L155.99 221.141L154.309 195.56C154.159 193.279 153.413 191.523 152.072 190.294C150.785 189.004 149.114 188.426 147.061 188.561C144.951 188.7 143.341 189.493 142.234 190.94C141.122 192.331 140.641 194.167 140.791 196.448L142.472 222.029L123.479 223.277L120.308 175.025L139.301 173.777L139.785 181.134C141.118 178.755 142.964 176.772 145.323 175.185C147.738 173.594 150.657 172.687 154.08 172.462Z" fill="black"></path>
<path d="M221.311 191.673C221.398 192.985 221.395 194.246 221.302 195.455L190.759 197.462C191.318 201.607 193.195 203.574 196.389 203.364C198.442 203.229 199.863 202.191 200.652 200.249L220.757 198.927C220.298 202.394 219.046 205.57 217.001 208.454C215.01 211.277 212.384 213.598 209.124 215.416C205.917 217.173 202.317 218.183 198.325 218.445C193.534 218.76 189.191 218.043 185.295 216.294C181.456 214.542 178.36 211.881 176.006 208.313C173.706 204.683 172.39 200.359 172.06 195.34C171.731 190.32 172.47 185.89 174.28 182.047C176.143 178.144 178.863 175.073 182.439 172.833C186.072 170.589 190.284 169.31 195.075 168.995C199.866 168.68 204.181 169.399 208.019 171.152C211.911 172.844 215.004 175.447 217.297 178.963C219.647 182.474 220.985 186.711 221.311 191.673ZM201.764 188.404C201.659 186.807 201.067 185.643 199.988 184.912C198.905 184.124 197.593 183.78 196.053 183.882C192.688 184.103 190.827 185.858 190.471 189.146L201.764 188.404Z" fill="black"></path>
<path d="M291.904 163.748L283.611 212.754L262.222 214.159L254.617 187.335L250.245 214.946L228.856 216.352L214.307 168.847L233.128 167.61L239.078 196.691L243.395 166.936L263.671 165.603L272.21 194.857L274.366 164.9L291.904 163.748Z" fill="black"></path>
<path d="M310.91 211.096C306.338 211.157 302.27 210.468 298.707 209.029C295.201 207.589 292.402 205.568 290.309 202.966C288.217 200.365 287.006 197.408 286.676 194.097L304.937 193.855C305.184 195.281 305.798 196.33 306.779 197.003C307.817 197.675 309.108 198.001 310.651 197.981C311.622 197.968 312.391 197.757 312.957 197.35C313.523 196.885 313.802 196.338 313.793 195.709C313.779 194.624 313.168 193.86 311.962 193.419C310.756 192.977 308.72 192.49 305.855 191.956C302.359 191.317 299.463 190.612 297.166 189.842C294.927 189.071 292.937 187.726 291.196 185.805C289.513 183.884 288.649 181.209 288.603 177.78C288.564 174.808 289.3 172.111 290.811 169.69C292.379 167.211 294.697 165.266 297.765 163.853C300.832 162.383 304.566 161.619 308.967 161.561C315.483 161.474 320.591 163.007 324.291 166.159C328.048 169.311 330.333 173.453 331.144 178.587L314.255 178.811C313.952 177.501 313.338 176.508 312.415 175.835C311.491 175.104 310.257 174.749 308.714 174.769C307.742 174.782 307.002 174.992 306.493 175.399C305.983 175.748 305.733 176.295 305.743 177.038C305.755 178.009 306.365 178.744 307.573 179.243C308.779 179.684 310.7 180.145 313.336 180.624C316.831 181.264 319.785 181.996 322.197 182.822C324.609 183.647 326.715 185.106 328.514 187.197C330.313 189.231 331.237 192.077 331.286 195.735C331.324 198.592 330.529 201.175 328.902 203.483C327.275 205.792 324.898 207.624 321.772 208.98C318.703 210.335 315.083 211.041 310.91 211.096Z" fill="black"></path>
<path d="M122.683 201.011C122.649 202.325 122.53 203.58 122.327 204.775L91.7292 203.974C91.9057 208.153 93.5939 210.284 96.7937 210.368C98.8507 210.422 100.361 209.518 101.325 207.656L121.466 208.183C120.691 211.594 119.153 214.641 116.853 217.326C114.611 219.954 111.784 222.024 108.371 223.536C105.016 224.992 101.339 225.668 97.3395 225.563C92.5398 225.438 88.2805 224.326 84.5616 222.227C80.8999 220.13 78.0605 217.197 76.0436 213.427C74.0852 209.602 73.1719 205.176 73.3035 200.147C73.435 195.119 74.5779 190.775 76.7322 187.114C78.945 183.399 81.9347 180.589 85.7011 178.687C89.5246 176.785 93.8362 175.898 98.636 176.023C103.436 176.149 107.666 177.26 111.328 179.357C115.048 181.399 117.889 184.275 119.851 187.986C121.869 191.698 122.813 196.04 122.683 201.011ZM103.518 195.963C103.559 194.363 103.077 193.15 102.069 192.323C101.063 191.439 99.7884 190.977 98.2457 190.937C94.8744 190.848 92.8605 192.425 92.2039 195.667L103.518 195.963Z" fill="black"></path>
<path d="M59.7997 187.881C61.504 184.929 63.6829 182.511 66.3365 180.626C68.9853 178.685 71.8192 177.589 74.8382 177.337L76.5244 197.587L71.1415 198.035C67.5529 198.334 64.9564 199.181 63.3519 200.577C61.8043 201.968 61.1634 204.258 61.429 207.448L63.0725 227.185L44.1042 228.765L40.0914 180.575L59.0597 178.995L59.7997 187.881Z" stroke="black" stroke-width="5.13405" mask="url(#path-5-outside-1_253_53)"></path>
<path d="M154.08 172.462C159.612 172.098 164.04 173.669 167.364 177.174C170.744 180.675 172.643 185.591 173.059 191.922L174.897 219.898L155.99 221.141L154.309 195.56C154.159 193.279 153.413 191.523 152.072 190.294C150.785 189.004 149.114 188.426 147.061 188.561C144.951 188.7 143.341 189.493 142.234 190.94C141.122 192.331 140.641 194.167 140.791 196.448L142.472 222.029L123.479 223.277L120.308 175.025L139.301 173.777L139.785 181.134C141.118 178.755 142.964 176.772 145.323 175.185C147.738 173.594 150.657 172.687 154.08 172.462Z" stroke="black" stroke-width="5.13405" mask="url(#path-5-outside-1_253_53)"></path>
<path d="M221.311 191.673C221.398 192.985 221.395 194.246 221.302 195.455L190.759 197.462C191.318 201.607 193.195 203.574 196.389 203.364C198.442 203.229 199.863 202.191 200.652 200.249L220.757 198.927C220.298 202.394 219.046 205.57 217.001 208.454C215.01 211.277 212.384 213.598 209.124 215.416C205.917 217.173 202.317 218.183 198.325 218.445C193.534 218.76 189.191 218.043 185.295 216.294C181.456 214.542 178.36 211.881 176.006 208.313C173.706 204.683 172.39 200.359 172.06 195.34C171.731 190.32 172.47 185.89 174.28 182.047C176.143 178.144 178.863 175.073 182.439 172.833C186.072 170.589 190.284 169.31 195.075 168.995C199.866 168.68 204.181 169.399 208.019 171.152C211.911 172.844 215.004 175.447 217.297 178.963C219.647 182.474 220.985 186.711 221.311 191.673ZM201.764 188.404C201.659 186.807 201.067 185.643 199.988 184.912C198.905 184.124 197.593 183.78 196.053 183.882C192.688 184.103 190.827 185.858 190.471 189.146L201.764 188.404Z" stroke="black" stroke-width="5.13405" mask="url(#path-5-outside-1_253_53)"></path>
<path d="M291.904 163.748L283.611 212.754L262.222 214.159L254.617 187.335L250.245 214.946L228.856 216.352L214.307 168.847L233.128 167.61L239.078 196.691L243.395 166.936L263.671 165.603L272.21 194.857L274.366 164.9L291.904 163.748Z" stroke="black" stroke-width="5.13405" mask="url(#path-5-outside-1_253_53)"></path>
<path d="M310.91 211.096C306.338 211.157 302.27 210.468 298.707 209.029C295.201 207.589 292.402 205.568 290.309 202.966C288.217 200.365 287.006 197.408 286.676 194.097L304.937 193.855C305.184 195.281 305.798 196.33 306.779 197.003C307.817 197.675 309.108 198.001 310.651 197.981C311.622 197.968 312.391 197.757 312.957 197.35C313.523 196.885 313.802 196.338 313.793 195.709C313.779 194.624 313.168 193.86 311.962 193.419C310.756 192.977 308.72 192.49 305.855 191.956C302.359 191.317 299.463 190.612 297.166 189.842C294.927 189.071 292.937 187.726 291.196 185.805C289.513 183.884 288.649 181.209 288.603 177.78C288.564 174.808 289.3 172.111 290.811 169.69C292.379 167.211 294.697 165.266 297.765 163.853C300.832 162.383 304.566 161.619 308.967 161.561C315.483 161.474 320.591 163.007 324.291 166.159C328.048 169.311 330.333 173.453 331.144 178.587L314.255 178.811C313.952 177.501 313.338 176.508 312.415 175.835C311.491 175.104 310.257 174.749 308.714 174.769C307.742 174.782 307.002 174.992 306.493 175.399C305.983 175.748 305.733 176.295 305.743 177.038C305.755 178.009 306.365 178.744 307.573 179.243C308.779 179.684 310.7 180.145 313.336 180.624C316.831 181.264 319.785 181.996 322.197 182.822C324.609 183.647 326.715 185.106 328.514 187.197C330.313 189.231 331.237 192.077 331.286 195.735C331.324 198.592 330.529 201.175 328.902 203.483C327.275 205.792 324.898 207.624 321.772 208.98C318.703 210.335 315.083 211.041 310.91 211.096Z" stroke="black" stroke-width="5.13405" mask="url(#path-5-outside-1_253_53)"></path>
<path d="M122.683 201.011C122.649 202.325 122.53 203.58 122.327 204.775L91.7292 203.974C91.9057 208.153 93.5939 210.284 96.7937 210.368C98.8507 210.422 100.361 209.518 101.325 207.656L121.466 208.183C120.691 211.594 119.153 214.641 116.853 217.326C114.611 219.954 111.784 222.024 108.371 223.536C105.016 224.992 101.339 225.668 97.3395 225.563C92.5398 225.438 88.2805 224.326 84.5616 222.227C80.8999 220.13 78.0605 217.197 76.0436 213.427C74.0852 209.602 73.1719 205.176 73.3035 200.147C73.435 195.119 74.5779 190.775 76.7322 187.114C78.945 183.399 81.9347 180.589 85.7011 178.687C89.5246 176.785 93.8362 175.898 98.636 176.023C103.436 176.149 107.666 177.26 111.328 179.357C115.048 181.399 117.889 184.275 119.851 187.986C121.869 191.698 122.813 196.04 122.683 201.011ZM103.518 195.963C103.559 194.363 103.077 193.15 102.069 192.323C101.063 191.439 99.7884 190.977 98.2457 190.937C94.8744 190.848 92.8605 192.425 92.2039 195.667L103.518 195.963Z" stroke="black" stroke-width="5.13405" mask="url(#path-5-outside-1_253_53)"></path>
<mask id="path-6-outside-2_253_53" maskUnits="userSpaceOnUse" x="37.8732" y="158.039" width="296.908" height="73.1635" fill="black">
<rect fill="white" x="37.8732" y="158.039" width="296.908" height="73.1635"></rect>
<path d="M59.7997 187.881C61.504 184.929 63.6829 182.511 66.3365 180.626C68.9853 178.685 71.8192 177.589 74.8382 177.337L76.5244 197.587L71.1415 198.035C67.5529 198.334 64.9564 199.181 63.3519 200.577C61.8043 201.968 61.1634 204.258 61.429 207.448L63.0725 227.185L44.1042 228.765L40.0914 180.575L59.0597 178.995L59.7997 187.881Z"></path>
<path d="M154.08 172.462C159.612 172.098 164.04 173.669 167.364 177.174C170.744 180.675 172.643 185.591 173.059 191.922L174.897 219.898L155.99 221.141L154.309 195.56C154.159 193.279 153.413 191.523 152.072 190.294C150.785 189.004 149.114 188.426 147.061 188.561C144.951 188.7 143.341 189.493 142.234 190.94C141.122 192.331 140.641 194.167 140.791 196.448L142.472 222.029L123.479 223.277L120.308 175.025L139.301 173.777L139.785 181.134C141.118 178.755 142.964 176.772 145.323 175.185C147.738 173.594 150.657 172.687 154.08 172.462Z"></path>
<path d="M221.311 191.673C221.398 192.985 221.395 194.246 221.302 195.455L190.759 197.462C191.318 201.607 193.195 203.574 196.389 203.364C198.442 203.229 199.863 202.191 200.652 200.249L220.757 198.927C220.298 202.394 219.046 205.57 217.001 208.454C215.01 211.277 212.384 213.598 209.124 215.416C205.917 217.173 202.317 218.183 198.325 218.445C193.534 218.76 189.191 218.043 185.295 216.294C181.456 214.542 178.36 211.881 176.006 208.313C173.706 204.683 172.39 200.359 172.06 195.34C171.731 190.32 172.47 185.89 174.28 182.047C176.143 178.144 178.863 175.073 182.439 172.833C186.072 170.589 190.284 169.31 195.075 168.995C199.866 168.68 204.181 169.399 208.019 171.152C211.911 172.844 215.004 175.447 217.297 178.963C219.647 182.474 220.985 186.711 221.311 191.673ZM201.764 188.404C201.659 186.807 201.067 185.643 199.988 184.912C198.905 184.124 197.593 183.78 196.053 183.882C192.688 184.103 190.827 185.858 190.471 189.146L201.764 188.404Z"></path>
<path d="M291.904 163.748L283.611 212.754L262.222 214.159L254.617 187.335L250.245 214.946L228.856 216.352L214.307 168.847L233.128 167.61L239.078 196.691L243.395 166.936L263.671 165.603L272.21 194.857L274.366 164.9L291.904 163.748Z"></path>
<path d="M310.91 211.096C306.338 211.157 302.27 210.468 298.707 209.029C295.201 207.589 292.402 205.568 290.309 202.966C288.217 200.365 287.006 197.408 286.676 194.097L304.937 193.855C305.184 195.281 305.798 196.33 306.779 197.003C307.817 197.675 309.108 198.001 310.651 197.981C311.622 197.968 312.391 197.757 312.957 197.35C313.523 196.885 313.802 196.338 313.793 195.709C313.779 194.624 313.168 193.86 311.962 193.419C310.756 192.977 308.72 192.49 305.855 191.956C302.359 191.317 299.463 190.612 297.166 189.842C294.927 189.071 292.937 187.726 291.196 185.805C289.513 183.884 288.649 181.209 288.603 177.78C288.564 174.808 289.3 172.111 290.811 169.69C292.379 167.211 294.697 165.266 297.765 163.853C300.832 162.383 304.566 161.619 308.967 161.561C315.483 161.474 320.591 163.007 324.291 166.159C328.048 169.311 330.333 173.453 331.144 178.587L314.255 178.811C313.952 177.501 313.338 176.508 312.415 175.835C311.491 175.104 310.257 174.749 308.714 174.769C307.742 174.782 307.002 174.992 306.493 175.399C305.983 175.748 305.733 176.295 305.743 177.038C305.755 178.009 306.365 178.744 307.573 179.243C308.779 179.684 310.7 180.145 313.336 180.624C316.831 181.264 319.785 181.996 322.197 182.822C324.609 183.647 326.715 185.106 328.514 187.197C330.313 189.231 331.237 192.077 331.286 195.735C331.324 198.592 330.529 201.175 328.902 203.483C327.275 205.792 324.898 207.624 321.772 208.98C318.703 210.335 315.083 211.041 310.91 211.096Z"></path>
<path d="M122.683 201.011C122.649 202.325 122.53 203.58 122.327 204.775L91.7292 203.974C91.9057 208.153 93.5939 210.284 96.7937 210.368C98.8507 210.422 100.361 209.518 101.325 207.656L121.466 208.183C120.691 211.594 119.153 214.641 116.853 217.326C114.611 219.954 111.784 222.024 108.371 223.536C105.016 224.992 101.339 225.668 97.3395 225.563C92.5398 225.438 88.2805 224.326 84.5616 222.227C80.8999 220.13 78.0605 217.197 76.0436 213.427C74.0852 209.602 73.1719 205.176 73.3035 200.147C73.435 195.119 74.5779 190.775 76.7322 187.114C78.945 183.399 81.9347 180.589 85.7011 178.687C89.5246 176.785 93.8362 175.898 98.636 176.023C103.436 176.149 107.666 177.26 111.328 179.357C115.048 181.399 117.889 184.275 119.851 187.986C121.869 191.698 122.813 196.04 122.683 201.011ZM103.518 195.963C103.559 194.363 103.077 193.15 102.069 192.323C101.063 191.439 99.7884 190.977 98.2457 190.937C94.8744 190.848 92.8605 192.425 92.2039 195.667L103.518 195.963Z"></path>
</mask>
<path d="M59.7997 187.881C61.504 184.929 63.6829 182.511 66.3365 180.626C68.9853 178.685 71.8192 177.589 74.8382 177.337L76.5244 197.587L71.1415 198.035C67.5529 198.334 64.9564 199.181 63.3519 200.577C61.8043 201.968 61.1634 204.258 61.429 207.448L63.0725 227.185L44.1042 228.765L40.0914 180.575L59.0597 178.995L59.7997 187.881Z" fill="black"></path>
<path d="M154.08 172.462C159.612 172.098 164.04 173.669 167.364 177.174C170.744 180.675 172.643 185.591 173.059 191.922L174.897 219.898L155.99 221.141L154.309 195.56C154.159 193.279 153.413 191.523 152.072 190.294C150.785 189.004 149.114 188.426 147.061 188.561C144.951 188.7 143.341 189.493 142.234 190.94C141.122 192.331 140.641 194.167 140.791 196.448L142.472 222.029L123.479 223.277L120.308 175.025L139.301 173.777L139.785 181.134C141.118 178.755 142.964 176.772 145.323 175.185C147.738 173.594 150.657 172.687 154.08 172.462Z" fill="black"></path>
<path d="M221.311 191.673C221.398 192.985 221.395 194.246 221.302 195.455L190.759 197.462C191.318 201.607 193.195 203.574 196.389 203.364C198.442 203.229 199.863 202.191 200.652 200.249L220.757 198.927C220.298 202.394 219.046 205.57 217.001 208.454C215.01 211.277 212.384 213.598 209.124 215.416C205.917 217.173 202.317 218.183 198.325 218.445C193.534 218.76 189.191 218.043 185.295 216.294C181.456 214.542 178.36 211.881 176.006 208.313C173.706 204.683 172.39 200.359 172.06 195.34C171.731 190.32 172.47 185.89 174.28 182.047C176.143 178.144 178.863 175.073 182.439 172.833C186.072 170.589 190.284 169.31 195.075 168.995C199.866 168.68 204.181 169.399 208.019 171.152C211.911 172.844 215.004 175.447 217.297 178.963C219.647 182.474 220.985 186.711 221.311 191.673ZM201.764 188.404C201.659 186.807 201.067 185.643 199.988 184.912C198.905 184.124 197.593 183.78 196.053 183.882C192.688 184.103 190.827 185.858 190.471 189.146L201.764 188.404Z" fill="black"></path>
<path d="M291.904 163.748L283.611 212.754L262.222 214.159L254.617 187.335L250.245 214.946L228.856 216.352L214.307 168.847L233.128 167.61L239.078 196.691L243.395 166.936L263.671 165.603L272.21 194.857L274.366 164.9L291.904 163.748Z" fill="black"></path>
<path d="M310.91 211.096C306.338 211.157 302.27 210.468 298.707 209.029C295.201 207.589 292.402 205.568 290.309 202.966C288.217 200.365 287.006 197.408 286.676 194.097L304.937 193.855C305.184 195.281 305.798 196.33 306.779 197.003C307.817 197.675 309.108 198.001 310.651 197.981C311.622 197.968 312.391 197.757 312.957 197.35C313.523 196.885 313.802 196.338 313.793 195.709C313.779 194.624 313.168 193.86 311.962 193.419C310.756 192.977 308.72 192.49 305.855 191.956C302.359 191.317 299.463 190.612 297.166 189.842C294.927 189.071 292.937 187.726 291.196 185.805C289.513 183.884 288.649 181.209 288.603 177.78C288.564 174.808 289.3 172.111 290.811 169.69C292.379 167.211 294.697 165.266 297.765 163.853C300.832 162.383 304.566 161.619 308.967 161.561C315.483 161.474 320.591 163.007 324.291 166.159C328.048 169.311 330.333 173.453 331.144 178.587L314.255 178.811C313.952 177.501 313.338 176.508 312.415 175.835C311.491 175.104 310.257 174.749 308.714 174.769C307.742 174.782 307.002 174.992 306.493 175.399C305.983 175.748 305.733 176.295 305.743 177.038C305.755 178.009 306.365 178.744 307.573 179.243C308.779 179.684 310.7 180.145 313.336 180.624C316.831 181.264 319.785 181.996 322.197 182.822C324.609 183.647 326.715 185.106 328.514 187.197C330.313 189.231 331.237 192.077 331.286 195.735C331.324 198.592 330.529 201.175 328.902 203.483C327.275 205.792 324.898 207.624 321.772 208.98C318.703 210.335 315.083 211.041 310.91 211.096Z" fill="black"></path>
<path d="M122.683 201.011C122.649 202.325 122.53 203.58 122.327 204.775L91.7292 203.974C91.9057 208.153 93.5939 210.284 96.7937 210.368C98.8507 210.422 100.361 209.518 101.325 207.656L121.466 208.183C120.691 211.594 119.153 214.641 116.853 217.326C114.611 219.954 111.784 222.024 108.371 223.536C105.016 224.992 101.339 225.668 97.3395 225.563C92.5398 225.438 88.2805 224.326 84.5616 222.227C80.8999 220.13 78.0605 217.197 76.0436 213.427C74.0852 209.602 73.1719 205.176 73.3035 200.147C73.435 195.119 74.5779 190.775 76.7322 187.114C78.945 183.399 81.9347 180.589 85.7011 178.687C89.5246 176.785 93.8362 175.898 98.636 176.023C103.436 176.149 107.666 177.26 111.328 179.357C115.048 181.399 117.889 184.275 119.851 187.986C121.869 191.698 122.813 196.04 122.683 201.011ZM103.518 195.963C103.559 194.363 103.077 193.15 102.069 192.323C101.063 191.439 99.7884 190.977 98.2457 190.937C94.8744 190.848 92.8605 192.425 92.2039 195.667L103.518 195.963Z" fill="black"></path>
<path d="M59.7997 187.881C61.504 184.929 63.6829 182.511 66.3365 180.626C68.9853 178.685 71.8192 177.589 74.8382 177.337L76.5244 197.587L71.1415 198.035C67.5529 198.334 64.9564 199.181 63.3519 200.577C61.8043 201.968 61.1634 204.258 61.429 207.448L63.0725 227.185L44.1042 228.765L40.0914 180.575L59.0597 178.995L59.7997 187.881Z" stroke="white" stroke-width="2.05362" mask="url(#path-6-outside-2_253_53)"></path>
<path d="M154.08 172.462C159.612 172.098 164.04 173.669 167.364 177.174C170.744 180.675 172.643 185.591 173.059 191.922L174.897 219.898L155.99 221.141L154.309 195.56C154.159 193.279 153.413 191.523 152.072 190.294C150.785 189.004 149.114 188.426 147.061 188.561C144.951 188.7 143.341 189.493 142.234 190.94C141.122 192.331 140.641 194.167 140.791 196.448L142.472 222.029L123.479 223.277L120.308 175.025L139.301 173.777L139.785 181.134C141.118 178.755 142.964 176.772 145.323 175.185C147.738 173.594 150.657 172.687 154.08 172.462Z" stroke="white" stroke-width="2.05362" mask="url(#path-6-outside-2_253_53)"></path>
<path d="M221.311 191.673C221.398 192.985 221.395 194.246 221.302 195.455L190.759 197.462C191.318 201.607 193.195 203.574 196.389 203.364C198.442 203.229 199.863 202.191 200.652 200.249L220.757 198.927C220.298 202.394 219.046 205.57 217.001 208.454C215.01 211.277 212.384 213.598 209.124 215.416C205.917 217.173 202.317 218.183 198.325 218.445C193.534 218.76 189.191 218.043 185.295 216.294C181.456 214.542 178.36 211.881 176.006 208.313C173.706 204.683 172.39 200.359 172.06 195.34C171.731 190.32 172.47 185.89 174.28 182.047C176.143 178.144 178.863 175.073 182.439 172.833C186.072 170.589 190.284 169.31 195.075 168.995C199.866 168.68 204.181 169.399 208.019 171.152C211.911 172.844 215.004 175.447 217.297 178.963C219.647 182.474 220.985 186.711 221.311 191.673ZM201.764 188.404C201.659 186.807 201.067 185.643 199.988 184.912C198.905 184.124 197.593 183.78 196.053 183.882C192.688 184.103 190.827 185.858 190.471 189.146L201.764 188.404Z" stroke="white" stroke-width="2.05362" mask="url(#path-6-outside-2_253_53)"></path>
<path d="M291.904 163.748L283.611 212.754L262.222 214.159L254.617 187.335L250.245 214.946L228.856 216.352L214.307 168.847L233.128 167.61L239.078 196.691L243.395 166.936L263.671 165.603L272.21 194.857L274.366 164.9L291.904 163.748Z" stroke="white" stroke-width="2.05362" mask="url(#path-6-outside-2_253_53)"></path>
<path d="M310.91 211.096C306.338 211.157 302.27 210.468 298.707 209.029C295.201 207.589 292.402 205.568 290.309 202.966C288.217 200.365 287.006 197.408 286.676 194.097L304.937 193.855C305.184 195.281 305.798 196.33 306.779 197.003C307.817 197.675 309.108 198.001 310.651 197.981C311.622 197.968 312.391 197.757 312.957 197.35C313.523 196.885 313.802 196.338 313.793 195.709C313.779 194.624 313.168 193.86 311.962 193.419C310.756 192.977 308.72 192.49 305.855 191.956C302.359 191.317 299.463 190.612 297.166 189.842C294.927 189.071 292.937 187.726 291.196 185.805C289.513 183.884 288.649 181.209 288.603 177.78C288.564 174.808 289.3 172.111 290.811 169.69C292.379 167.211 294.697 165.266 297.765 163.853C300.832 162.383 304.566 161.619 308.967 161.561C315.483 161.474 320.591 163.007 324.291 166.159C328.048 169.311 330.333 173.453 331.144 178.587L314.255 178.811C313.952 177.501 313.338 176.508 312.415 175.835C311.491 175.104 310.257 174.749 308.714 174.769C307.742 174.782 307.002 174.992 306.493 175.399C305.983 175.748 305.733 176.295 305.743 177.038C305.755 178.009 306.365 178.744 307.573 179.243C308.779 179.684 310.7 180.145 313.336 180.624C316.831 181.264 319.785 181.996 322.197 182.822C324.609 183.647 326.715 185.106 328.514 187.197C330.313 189.231 331.237 192.077 331.286 195.735C331.324 198.592 330.529 201.175 328.902 203.483C327.275 205.792 324.898 207.624 321.772 208.98C318.703 210.335 315.083 211.041 310.91 211.096Z" stroke="white" stroke-width="2.05362" mask="url(#path-6-outside-2_253_53)"></path>
<path d="M122.683 201.011C122.649 202.325 122.53 203.58 122.327 204.775L91.7292 203.974C91.9057 208.153 93.5939 210.284 96.7937 210.368C98.8507 210.422 100.361 209.518 101.325 207.656L121.466 208.183C120.691 211.594 119.153 214.641 116.853 217.326C114.611 219.954 111.784 222.024 108.371 223.536C105.016 224.992 101.339 225.668 97.3395 225.563C92.5398 225.438 88.2805 224.326 84.5616 222.227C80.8999 220.13 78.0605 217.197 76.0436 213.427C74.0852 209.602 73.1719 205.176 73.3035 200.147C73.435 195.119 74.5779 190.775 76.7322 187.114C78.945 183.399 81.9347 180.589 85.7011 178.687C89.5246 176.785 93.8362 175.898 98.636 176.023C103.436 176.149 107.666 177.26 111.328 179.357C115.048 181.399 117.889 184.275 119.851 187.986C121.869 191.698 122.813 196.04 122.683 201.011ZM103.518 195.963C103.559 194.363 103.077 193.15 102.069 192.323C101.063 191.439 99.7884 190.977 98.2457 190.937C94.8744 190.848 92.8605 192.425 92.2039 195.667L103.518 195.963Z" stroke="white" stroke-width="2.05362" mask="url(#path-6-outside-2_253_53)"></path>
<rect x="83.7337" y="230.076" width="222.818" height="5.64745" transform="rotate(-3.76 83.7337 230.076)" fill="black" stroke="black" stroke-width="2.56702"></rect>
<rect x="84.5527" y="230.794" width="221.277" height="4.10724" transform="rotate(-3.76 84.5527 230.794)" fill="black" stroke="white" stroke-width="1.02681"></rect>
</svg></svg></g></g></svg></g></svg>