<svg width="312" height="89" viewBox="0 0 312 89" fill="none" xmlns="http://www.w3.org/2000/svg">
<path d="M270.113 61.3134L262.574 88.0772L281.007 61.2777L311.475 55.887L285.441 50.8512L293.651 20.9244L274.304 50.8043L243.836 55.887L270.113 61.3134Z" fill="white"/>
<path d="M255.027 55.6782L272.953 59.3111L270.112 68.126L267.699 77.3716L280.165 59.3111L300.769 55.6782L282.946 52.253L288.716 32.1165L275.632 52.253L255.027 55.6782Z" fill="black"/>
<path d="M260.744 55.4447L274.189 58.1694L272.058 64.7805L270.248 71.7148L279.597 58.1694L295.05 55.4447L281.683 52.8758L286.01 37.7734L276.197 52.8758L260.744 55.4447Z" fill="#74FD08"/>
<mask id="path-4-outside-1_91_526" maskUnits="userSpaceOnUse" x="-0.525391" y="-0.566895" width="282" height="53" fill="black">
<rect fill="white" x="-0.525391" y="-0.566895" width="282" height="53"/>
<path d="M20.6601 11.8899C22.4555 9.2035 24.6666 7.0517 27.2934 5.4345C29.9193 3.76312 32.6677 2.90238 35.5386 2.85227L35.8747 22.109L30.7558 22.1984C27.3432 22.258 24.8348 22.8978 23.2306 24.1178C21.6805 25.337 20.9319 27.4632 20.9849 30.4966L21.3125 49.2659L3.27451 49.5807L2.47461 3.75451L20.5126 3.43966L20.6601 11.8899Z"/>
<path d="M110.786 3.1663C116.041 3.1663 120.132 4.92703 123.057 8.44849C126.037 11.97 127.527 16.7375 127.527 22.7511V49.3246H109.567V25.0265C109.567 22.8594 108.971 21.1529 107.78 19.9068C106.642 18.6066 105.098 17.9564 103.147 17.9564C101.143 17.9564 99.5719 18.6066 98.4342 19.9068C97.2964 21.1529 96.7276 22.8594 96.7276 25.0265V49.3246H78.6869V3.49136H96.7276V10.4801C98.1362 8.31305 100.005 6.55232 102.335 5.19791C104.719 3.8435 107.536 3.1663 110.786 3.1663Z"/>
<path d="M173.179 25.515C173.179 26.7611 173.097 27.953 172.935 29.0907H143.923C144.194 33.0455 145.847 35.023 148.88 35.023C150.831 35.023 152.239 34.1291 153.106 32.3413H172.203C171.553 35.5918 170.172 38.5174 168.059 41.1178C166 43.6641 163.373 45.6957 160.176 47.2127C157.034 48.6754 153.567 49.4068 149.774 49.4068C145.224 49.4068 141.16 48.4587 137.585 46.5626C134.063 44.6664 131.3 41.9576 129.296 38.4361C127.345 34.8605 126.37 30.6889 126.37 25.9214C126.37 21.1538 127.345 17.0093 129.296 13.4879C131.3 9.91223 134.063 7.17632 137.585 5.28015C141.16 3.38397 145.224 2.43589 149.774 2.43589C154.325 2.43589 158.361 3.38397 161.883 5.28015C165.458 7.12215 168.221 9.77679 170.172 13.2441C172.176 16.7114 173.179 20.8017 173.179 25.515ZM154.894 21.208C154.894 19.6911 154.406 18.5534 153.431 17.7949C152.456 16.9822 151.237 16.5759 149.774 16.5759C146.578 16.5759 144.709 18.12 144.167 21.208H154.894Z"/>
<path d="M241.679 3.49136L230.79 49.3246H210.474L204.948 23.4824L199.097 49.3246H178.78L167.972 3.49136H185.85L189.67 31.3651L195.602 3.49136H214.862L221.119 31.6902L225.02 3.49136H241.679Z"/>
<path d="M256.712 49.4539C252.384 49.2271 248.579 48.3224 245.299 46.74C242.072 45.1604 239.55 43.0752 237.733 40.4844C235.916 37.8936 234.954 35.0222 234.848 31.8701L252.134 32.776C252.279 34.1399 252.795 35.1705 253.681 35.868C254.621 36.5682 255.821 36.9566 257.282 37.0332C258.201 37.0814 258.942 36.9303 259.503 36.58C260.066 36.1755 260.364 35.6757 260.395 35.0806C260.449 34.0526 259.919 33.2925 258.805 32.8001C257.692 32.3078 255.797 31.7202 253.12 31.0374C249.854 30.2152 247.159 29.3687 245.034 28.4979C242.964 27.6298 241.165 26.2336 239.639 24.309C238.166 22.3873 237.515 19.8034 237.685 16.5573C237.833 13.744 238.696 11.2395 240.276 9.04373C241.913 6.79673 244.226 5.10056 247.216 3.95522C250.208 2.75577 253.787 2.26521 257.953 2.48354C264.121 2.80677 268.856 4.57398 272.16 7.78516C275.518 10.9992 277.421 15.0592 277.869 19.9653L261.882 19.1274C261.677 17.8689 261.158 16.8923 260.327 16.1977C259.498 15.449 258.353 15.0364 256.892 14.9599C255.973 14.9117 255.259 15.0642 254.753 15.4174C254.249 15.7165 253.978 16.2177 253.941 16.921C253.893 17.8407 254.424 18.5738 255.535 19.1203C256.648 19.6126 258.437 20.1675 260.9 20.7848C264.166 21.607 266.914 22.4834 269.144 23.4141C271.374 24.3447 273.275 25.8548 274.847 27.9445C276.422 29.9801 277.119 32.7291 276.937 36.1917C276.796 38.8968 275.883 41.2902 274.201 43.3721C272.519 45.454 270.157 47.0391 267.116 48.1275C264.13 49.2187 260.661 49.6609 256.712 49.4539Z"/>
<path d="M79.3179 28.2159C79.2036 29.4567 79.0135 30.6361 78.7473 31.7541L49.858 29.0949C49.7653 33.058 51.2294 35.1786 54.2505 35.4566C56.1927 35.6354 57.6773 34.8744 58.7043 33.1735L77.7211 34.924C76.7758 38.1013 75.1319 40.8879 72.7896 43.2837C70.5062 45.6306 67.7035 47.4128 64.3815 48.6304C61.1184 49.799 57.5987 50.2095 53.8223 49.8619C49.2906 49.4447 45.3314 48.1282 41.9446 45.9123C38.6118 43.7013 36.1087 40.7506 34.4354 37.0602C32.821 33.3209 32.2323 29.0775 32.6693 24.33C33.1063 19.5826 34.4572 15.5449 36.7221 12.217C39.0459 8.84019 42.0481 6.36906 45.7285 4.80364C49.4629 3.24319 53.5959 2.67153 58.1276 3.08865C62.6593 3.50578 66.5915 4.81982 69.9243 7.03079C73.3161 9.19278 75.8241 12.0895 77.4485 15.721C79.1267 19.3574 79.7499 23.5224 79.3179 28.2159ZM61.5051 22.251C61.6441 20.7405 61.2629 19.5629 60.3613 18.7182C59.4647 17.8196 58.2881 17.3032 56.8315 17.1692C53.6486 16.8762 51.6458 18.2424 50.8233 21.2678L61.5051 22.251Z"/>
</mask>
<path d="M20.6601 11.8899C22.4555 9.2035 24.6666 7.0517 27.2934 5.4345C29.9193 3.76312 32.6677 2.90238 35.5386 2.85227L35.8747 22.109L30.7558 22.1984C27.3432 22.258 24.8348 22.8978 23.2306 24.1178C21.6805 25.337 20.9319 27.4632 20.9849 30.4966L21.3125 49.2659L3.27451 49.5807L2.47461 3.75451L20.5126 3.43966L20.6601 11.8899Z" fill="white"/>
<path d="M110.786 3.1663C116.041 3.1663 120.132 4.92703 123.057 8.44849C126.037 11.97 127.527 16.7375 127.527 22.7511V49.3246H109.567V25.0265C109.567 22.8594 108.971 21.1529 107.78 19.9068C106.642 18.6066 105.098 17.9564 103.147 17.9564C101.143 17.9564 99.5719 18.6066 98.4342 19.9068C97.2964 21.1529 96.7276 22.8594 96.7276 25.0265V49.3246H78.6869V3.49136H96.7276V10.4801C98.1362 8.31305 100.005 6.55232 102.335 5.19791C104.719 3.8435 107.536 3.1663 110.786 3.1663Z" fill="white"/>
<path d="M173.179 25.515C173.179 26.7611 173.097 27.953 172.935 29.0907H143.923C144.194 33.0455 145.847 35.023 148.88 35.023C150.831 35.023 152.239 34.1291 153.106 32.3413H172.203C171.553 35.5918 170.172 38.5174 168.059 41.1178C166 43.6641 163.373 45.6957 160.176 47.2127C157.034 48.6754 153.567 49.4068 149.774 49.4068C145.224 49.4068 141.16 48.4587 137.585 46.5626C134.063 44.6664 131.3 41.9576 129.296 38.4361C127.345 34.8605 126.37 30.6889 126.37 25.9214C126.37 21.1538 127.345 17.0093 129.296 13.4879C131.3 9.91223 134.063 7.17632 137.585 5.28015C141.16 3.38397 145.224 2.43589 149.774 2.43589C154.325 2.43589 158.361 3.38397 161.883 5.28015C165.458 7.12215 168.221 9.77679 170.172 13.2441C172.176 16.7114 173.179 20.8017 173.179 25.515ZM154.894 21.208C154.894 19.6911 154.406 18.5534 153.431 17.7949C152.456 16.9822 151.237 16.5759 149.774 16.5759C146.578 16.5759 144.709 18.12 144.167 21.208H154.894Z" fill="white"/>
<path d="M241.679 3.49136L230.79 49.3246H210.474L204.948 23.4824L199.097 49.3246H178.78L167.972 3.49136H185.85L189.67 31.3651L195.602 3.49136H214.862L221.119 31.6902L225.02 3.49136H241.679Z" fill="white"/>
<path d="M256.712 49.4539C252.384 49.2271 248.579 48.3224 245.299 46.74C242.072 45.1604 239.55 43.0752 237.733 40.4844C235.916 37.8936 234.954 35.0222 234.848 31.8701L252.134 32.776C252.279 34.1399 252.795 35.1705 253.681 35.868C254.621 36.5682 255.821 36.9566 257.282 37.0332C258.201 37.0814 258.942 36.9303 259.503 36.58C260.066 36.1755 260.364 35.6757 260.395 35.0806C260.449 34.0526 259.919 33.2925 258.805 32.8001C257.692 32.3078 255.797 31.7202 253.12 31.0374C249.854 30.2152 247.159 29.3687 245.034 28.4979C242.964 27.6298 241.165 26.2336 239.639 24.309C238.166 22.3873 237.515 19.8034 237.685 16.5573C237.833 13.744 238.696 11.2395 240.276 9.04373C241.913 6.79673 244.226 5.10056 247.216 3.95522C250.208 2.75577 253.787 2.26521 257.953 2.48354C264.121 2.80677 268.856 4.57398 272.16 7.78516C275.518 10.9992 277.421 15.0592 277.869 19.9653L261.882 19.1274C261.677 17.8689 261.158 16.8923 260.327 16.1977C259.498 15.449 258.353 15.0364 256.892 14.9599C255.973 14.9117 255.259 15.0642 254.753 15.4174C254.249 15.7165 253.978 16.2177 253.941 16.921C253.893 17.8407 254.424 18.5738 255.535 19.1203C256.648 19.6126 258.437 20.1675 260.9 20.7848C264.166 21.607 266.914 22.4834 269.144 23.4141C271.374 24.3447 273.275 25.8548 274.847 27.9445C276.422 29.9801 277.119 32.7291 276.937 36.1917C276.796 38.8968 275.883 41.2902 274.201 43.3721C272.519 45.454 270.157 47.0391 267.116 48.1275C264.13 49.2187 260.661 49.6609 256.712 49.4539Z" fill="white"/>
<path d="M79.3179 28.2159C79.2036 29.4567 79.0135 30.6361 78.7473 31.7541L49.858 29.0949C49.7653 33.058 51.2294 35.1786 54.2505 35.4566C56.1927 35.6354 57.6773 34.8744 58.7043 33.1735L77.7211 34.924C76.7758 38.1013 75.1319 40.8879 72.7896 43.2837C70.5062 45.6306 67.7035 47.4128 64.3815 48.6304C61.1184 49.799 57.5987 50.2095 53.8223 49.8619C49.2906 49.4447 45.3314 48.1282 41.9446 45.9123C38.6118 43.7013 36.1087 40.7506 34.4354 37.0602C32.821 33.3209 32.2323 29.0775 32.6693 24.33C33.1063 19.5826 34.4572 15.5449 36.7221 12.217C39.0459 8.84019 42.0481 6.36906 45.7285 4.80364C49.4629 3.24319 53.5959 2.67153 58.1276 3.08865C62.6593 3.50578 66.5915 4.81982 69.9243 7.03079C73.3161 9.19278 75.8241 12.0895 77.4485 15.721C79.1267 19.3574 79.7499 23.5224 79.3179 28.2159ZM61.5051 22.251C61.6441 20.7405 61.2629 19.5629 60.3613 18.7182C59.4647 17.8196 58.2881 17.3032 56.8315 17.1692C53.6486 16.8762 51.6458 18.2424 50.8233 21.2678L61.5051 22.251Z" fill="white"/>
<path d="M20.6601 11.8899C22.4555 9.2035 24.6666 7.0517 27.2934 5.4345C29.9193 3.76312 32.6677 2.90238 35.5386 2.85227L35.8747 22.109L30.7558 22.1984C27.3432 22.258 24.8348 22.8978 23.2306 24.1178C21.6805 25.337 20.9319 27.4632 20.9849 30.4966L21.3125 49.2659L3.27451 49.5807L2.47461 3.75451L20.5126 3.43966L20.6601 11.8899Z" stroke="white" stroke-width="4.86614" mask="url(#path-4-outside-1_91_526)"/>
<path d="M110.786 3.1663C116.041 3.1663 120.132 4.92703 123.057 8.44849C126.037 11.97 127.527 16.7375 127.527 22.7511V49.3246H109.567V25.0265C109.567 22.8594 108.971 21.1529 107.78 19.9068C106.642 18.6066 105.098 17.9564 103.147 17.9564C101.143 17.9564 99.5719 18.6066 98.4342 19.9068C97.2964 21.1529 96.7276 22.8594 96.7276 25.0265V49.3246H78.6869V3.49136H96.7276V10.4801C98.1362 8.31305 100.005 6.55232 102.335 5.19791C104.719 3.8435 107.536 3.1663 110.786 3.1663Z" stroke="white" stroke-width="4.86614" mask="url(#path-4-outside-1_91_526)"/>
<path d="M173.179 25.515C173.179 26.7611 173.097 27.953 172.935 29.0907H143.923C144.194 33.0455 145.847 35.023 148.88 35.023C150.831 35.023 152.239 34.1291 153.106 32.3413H172.203C171.553 35.5918 170.172 38.5174 168.059 41.1178C166 43.6641 163.373 45.6957 160.176 47.2127C157.034 48.6754 153.567 49.4068 149.774 49.4068C145.224 49.4068 141.16 48.4587 137.585 46.5626C134.063 44.6664 131.3 41.9576 129.296 38.4361C127.345 34.8605 126.37 30.6889 126.37 25.9214C126.37 21.1538 127.345 17.0093 129.296 13.4879C131.3 9.91223 134.063 7.17632 137.585 5.28015C141.16 3.38397 145.224 2.43589 149.774 2.43589C154.325 2.43589 158.361 3.38397 161.883 5.28015C165.458 7.12215 168.221 9.77679 170.172 13.2441C172.176 16.7114 173.179 20.8017 173.179 25.515ZM154.894 21.208C154.894 19.6911 154.406 18.5534 153.431 17.7949C152.456 16.9822 151.237 16.5759 149.774 16.5759C146.578 16.5759 144.709 18.12 144.167 21.208H154.894Z" stroke="white" stroke-width="4.86614" mask="url(#path-4-outside-1_91_526)"/>
<path d="M241.679 3.49136L230.79 49.3246H210.474L204.948 23.4824L199.097 49.3246H178.78L167.972 3.49136H185.85L189.67 31.3651L195.602 3.49136H214.862L221.119 31.6902L225.02 3.49136H241.679Z" stroke="white" stroke-width="4.86614" mask="url(#path-4-outside-1_91_526)"/>
<path d="M256.712 49.4539C252.384 49.2271 248.579 48.3224 245.299 46.74C242.072 45.1604 239.55 43.0752 237.733 40.4844C235.916 37.8936 234.954 35.0222 234.848 31.8701L252.134 32.776C252.279 34.1399 252.795 35.1705 253.681 35.868C254.621 36.5682 255.821 36.9566 257.282 37.0332C258.201 37.0814 258.942 36.9303 259.503 36.58C260.066 36.1755 260.364 35.6757 260.395 35.0806C260.449 34.0526 259.919 33.2925 258.805 32.8001C257.692 32.3078 255.797 31.7202 253.12 31.0374C249.854 30.2152 247.159 29.3687 245.034 28.4979C242.964 27.6298 241.165 26.2336 239.639 24.309C238.166 22.3873 237.515 19.8034 237.685 16.5573C237.833 13.744 238.696 11.2395 240.276 9.04373C241.913 6.79673 244.226 5.10056 247.216 3.95522C250.208 2.75577 253.787 2.26521 257.953 2.48354C264.121 2.80677 268.856 4.57398 272.16 7.78516C275.518 10.9992 277.421 15.0592 277.869 19.9653L261.882 19.1274C261.677 17.8689 261.158 16.8923 260.327 16.1977C259.498 15.449 258.353 15.0364 256.892 14.9599C255.973 14.9117 255.259 15.0642 254.753 15.4174C254.249 15.7165 253.978 16.2177 253.941 16.921C253.893 17.8407 254.424 18.5738 255.535 19.1203C256.648 19.6126 258.437 20.1675 260.9 20.7848C264.166 21.607 266.914 22.4834 269.144 23.4141C271.374 24.3447 273.275 25.8548 274.847 27.9445C276.422 29.9801 277.119 32.7291 276.937 36.1917C276.796 38.8968 275.883 41.2902 274.201 43.3721C272.519 45.454 270.157 47.0391 267.116 48.1275C264.13 49.2187 260.661 49.6609 256.712 49.4539Z" stroke="white" stroke-width="4.86614" mask="url(#path-4-outside-1_91_526)"/>
<path d="M79.3179 28.2159C79.2036 29.4567 79.0135 30.6361 78.7473 31.7541L49.858 29.0949C49.7653 33.058 51.2294 35.1786 54.2505 35.4566C56.1927 35.6354 57.6773 34.8744 58.7043 33.1735L77.7211 34.924C76.7758 38.1013 75.1319 40.8879 72.7896 43.2837C70.5062 45.6306 67.7035 47.4128 64.3815 48.6304C61.1184 49.799 57.5987 50.2095 53.8223 49.8619C49.2906 49.4447 45.3314 48.1282 41.9446 45.9123C38.6118 43.7013 36.1087 40.7506 34.4354 37.0602C32.821 33.3209 32.2323 29.0775 32.6693 24.33C33.1063 19.5826 34.4572 15.5449 36.7221 12.217C39.0459 8.84019 42.0481 6.36906 45.7285 4.80364C49.4629 3.24319 53.5959 2.67153 58.1276 3.08865C62.6593 3.50578 66.5915 4.81982 69.9243 7.03079C73.3161 9.19278 75.8241 12.0895 77.4485 15.721C79.1267 19.3574 79.7499 23.5224 79.3179 28.2159ZM61.5051 22.251C61.6441 20.7405 61.2629 19.5629 60.3613 18.7182C59.4647 17.8196 58.2881 17.3032 56.8315 17.1692C53.6486 16.8762 51.6458 18.2424 50.8233 21.2678L61.5051 22.251Z" stroke="white" stroke-width="4.86614" mask="url(#path-4-outside-1_91_526)"/>
<mask id="path-5-outside-2_91_526" maskUnits="userSpaceOnUse" x="1.47461" y="1.43311" width="278" height="50" fill="black">
<rect fill="white" x="1.47461" y="1.43311" width="278" height="50"/>
<path d="M20.6601 11.8899C22.4555 9.2035 24.6666 7.0517 27.2934 5.4345C29.9193 3.76312 32.6677 2.90238 35.5386 2.85227L35.8747 22.109L30.7558 22.1984C27.3432 22.258 24.8348 22.8978 23.2306 24.1178C21.6805 25.337 20.9319 27.4632 20.9849 30.4966L21.3125 49.2659L3.27451 49.5807L2.47461 3.75451L20.5126 3.43966L20.6601 11.8899Z"/>
<path d="M110.786 3.1663C116.041 3.1663 120.132 4.92703 123.057 8.44849C126.037 11.97 127.527 16.7375 127.527 22.7511V49.3246H109.567V25.0265C109.567 22.8594 108.971 21.1529 107.78 19.9068C106.642 18.6066 105.098 17.9564 103.147 17.9564C101.143 17.9564 99.5719 18.6066 98.4342 19.9068C97.2964 21.1529 96.7276 22.8594 96.7276 25.0265V49.3246H78.6869V3.49136H96.7276V10.4801C98.1362 8.31305 100.005 6.55232 102.335 5.19791C104.719 3.8435 107.536 3.1663 110.786 3.1663Z"/>
<path d="M173.179 25.515C173.179 26.7611 173.097 27.953 172.935 29.0907H143.923C144.194 33.0455 145.847 35.023 148.88 35.023C150.831 35.023 152.239 34.1291 153.106 32.3413H172.203C171.553 35.5918 170.172 38.5174 168.059 41.1178C166 43.6641 163.373 45.6957 160.176 47.2127C157.034 48.6754 153.567 49.4068 149.774 49.4068C145.224 49.4068 141.16 48.4587 137.585 46.5626C134.063 44.6664 131.3 41.9576 129.296 38.4361C127.345 34.8605 126.37 30.6889 126.37 25.9214C126.37 21.1538 127.345 17.0093 129.296 13.4879C131.3 9.91223 134.063 7.17632 137.585 5.28015C141.16 3.38397 145.224 2.43589 149.774 2.43589C154.325 2.43589 158.361 3.38397 161.883 5.28015C165.458 7.12215 168.221 9.77679 170.172 13.2441C172.176 16.7114 173.179 20.8017 173.179 25.515ZM154.894 21.208C154.894 19.6911 154.406 18.5534 153.431 17.7949C152.456 16.9822 151.237 16.5759 149.774 16.5759C146.578 16.5759 144.709 18.12 144.167 21.208H154.894Z"/>
<path d="M241.679 3.49136L230.79 49.3246H210.474L204.948 23.4824L199.097 49.3246H178.78L167.972 3.49136H185.85L189.67 31.3651L195.602 3.49136H214.862L221.119 31.6902L225.02 3.49136H241.679Z"/>
<path d="M256.712 49.4539C252.384 49.2271 248.579 48.3224 245.299 46.74C242.072 45.1604 239.55 43.0752 237.733 40.4844C235.916 37.8936 234.954 35.0222 234.848 31.8701L252.134 32.776C252.279 34.1399 252.795 35.1705 253.681 35.868C254.621 36.5682 255.821 36.9566 257.282 37.0332C258.201 37.0814 258.942 36.9303 259.503 36.58C260.066 36.1755 260.364 35.6757 260.395 35.0806C260.449 34.0526 259.919 33.2925 258.805 32.8001C257.692 32.3078 255.797 31.7202 253.12 31.0374C249.854 30.2152 247.159 29.3687 245.034 28.4979C242.964 27.6298 241.165 26.2336 239.639 24.309C238.166 22.3873 237.515 19.8034 237.685 16.5573C237.833 13.744 238.696 11.2395 240.276 9.04373C241.913 6.79673 244.226 5.10056 247.216 3.95522C250.208 2.75577 253.787 2.26521 257.953 2.48354C264.121 2.80677 268.856 4.57398 272.16 7.78516C275.518 10.9992 277.421 15.0592 277.869 19.9653L261.882 19.1274C261.677 17.8689 261.158 16.8923 260.327 16.1977C259.498 15.449 258.353 15.0364 256.892 14.9599C255.973 14.9117 255.259 15.0642 254.753 15.4174C254.249 15.7165 253.978 16.2177 253.941 16.921C253.893 17.8407 254.424 18.5738 255.535 19.1203C256.648 19.6126 258.437 20.1675 260.9 20.7848C264.166 21.607 266.914 22.4834 269.144 23.4141C271.374 24.3447 273.275 25.8548 274.847 27.9445C276.422 29.9801 277.119 32.7291 276.937 36.1917C276.796 38.8968 275.883 41.2902 274.201 43.3721C272.519 45.454 270.157 47.0391 267.116 48.1275C264.13 49.2187 260.661 49.6609 256.712 49.4539Z"/>
<path d="M79.3179 28.2159C79.2036 29.4567 79.0135 30.6361 78.7473 31.7541L49.858 29.0949C49.7653 33.058 51.2294 35.1786 54.2505 35.4566C56.1927 35.6354 57.6773 34.8744 58.7043 33.1735L77.7211 34.924C76.7758 38.1013 75.1319 40.8879 72.7896 43.2837C70.5062 45.6306 67.7035 47.4128 64.3815 48.6304C61.1184 49.799 57.5987 50.2095 53.8223 49.8619C49.2906 49.4447 45.3314 48.1282 41.9446 45.9123C38.6118 43.7013 36.1087 40.7506 34.4354 37.0602C32.821 33.3209 32.2323 29.0775 32.6693 24.33C33.1063 19.5826 34.4572 15.5449 36.7221 12.217C39.0459 8.84019 42.0481 6.36906 45.7285 4.80364C49.4629 3.24319 53.5959 2.67153 58.1276 3.08865C62.6593 3.50578 66.5915 4.81982 69.9243 7.03079C73.3161 9.19278 75.8241 12.0895 77.4485 15.721C79.1267 19.3574 79.7499 23.5224 79.3179 28.2159ZM61.5051 22.251C61.6441 20.7405 61.2629 19.5629 60.3613 18.7182C59.4647 17.8196 58.2881 17.3032 56.8315 17.1692C53.6486 16.8762 51.6458 18.2424 50.8233 21.2678L61.5051 22.251Z"/>
</mask>
<path d="M20.6601 11.8899C22.4555 9.2035 24.6666 7.0517 27.2934 5.4345C29.9193 3.76312 32.6677 2.90238 35.5386 2.85227L35.8747 22.109L30.7558 22.1984C27.3432 22.258 24.8348 22.8978 23.2306 24.1178C21.6805 25.337 20.9319 27.4632 20.9849 30.4966L21.3125 49.2659L3.27451 49.5807L2.47461 3.75451L20.5126 3.43966L20.6601 11.8899Z" fill="white"/>
<path d="M110.786 3.1663C116.041 3.1663 120.132 4.92703 123.057 8.44849C126.037 11.97 127.527 16.7375 127.527 22.7511V49.3246H109.567V25.0265C109.567 22.8594 108.971 21.1529 107.78 19.9068C106.642 18.6066 105.098 17.9564 103.147 17.9564C101.143 17.9564 99.5719 18.6066 98.4342 19.9068C97.2964 21.1529 96.7276 22.8594 96.7276 25.0265V49.3246H78.6869V3.49136H96.7276V10.4801C98.1362 8.31305 100.005 6.55232 102.335 5.19791C104.719 3.8435 107.536 3.1663 110.786 3.1663Z" fill="white"/>
<path d="M173.179 25.515C173.179 26.7611 173.097 27.953 172.935 29.0907H143.923C144.194 33.0455 145.847 35.023 148.88 35.023C150.831 35.023 152.239 34.1291 153.106 32.3413H172.203C171.553 35.5918 170.172 38.5174 168.059 41.1178C166 43.6641 163.373 45.6957 160.176 47.2127C157.034 48.6754 153.567 49.4068 149.774 49.4068C145.224 49.4068 141.16 48.4587 137.585 46.5626C134.063 44.6664 131.3 41.9576 129.296 38.4361C127.345 34.8605 126.37 30.6889 126.37 25.9214C126.37 21.1538 127.345 17.0093 129.296 13.4879C131.3 9.91223 134.063 7.17632 137.585 5.28015C141.16 3.38397 145.224 2.43589 149.774 2.43589C154.325 2.43589 158.361 3.38397 161.883 5.28015C165.458 7.12215 168.221 9.77679 170.172 13.2441C172.176 16.7114 173.179 20.8017 173.179 25.515ZM154.894 21.208C154.894 19.6911 154.406 18.5534 153.431 17.7949C152.456 16.9822 151.237 16.5759 149.774 16.5759C146.578 16.5759 144.709 18.12 144.167 21.208H154.894Z" fill="white"/>
<path d="M241.679 3.49136L230.79 49.3246H210.474L204.948 23.4824L199.097 49.3246H178.78L167.972 3.49136H185.85L189.67 31.3651L195.602 3.49136H214.862L221.119 31.6902L225.02 3.49136H241.679Z" fill="white"/>
<path d="M256.712 49.4539C252.384 49.2271 248.579 48.3224 245.299 46.74C242.072 45.1604 239.55 43.0752 237.733 40.4844C235.916 37.8936 234.954 35.0222 234.848 31.8701L252.134 32.776C252.279 34.1399 252.795 35.1705 253.681 35.868C254.621 36.5682 255.821 36.9566 257.282 37.0332C258.201 37.0814 258.942 36.9303 259.503 36.58C260.066 36.1755 260.364 35.6757 260.395 35.0806C260.449 34.0526 259.919 33.2925 258.805 32.8001C257.692 32.3078 255.797 31.7202 253.12 31.0374C249.854 30.2152 247.159 29.3687 245.034 28.4979C242.964 27.6298 241.165 26.2336 239.639 24.309C238.166 22.3873 237.515 19.8034 237.685 16.5573C237.833 13.744 238.696 11.2395 240.276 9.04373C241.913 6.79673 244.226 5.10056 247.216 3.95522C250.208 2.75577 253.787 2.26521 257.953 2.48354C264.121 2.80677 268.856 4.57398 272.16 7.78516C275.518 10.9992 277.421 15.0592 277.869 19.9653L261.882 19.1274C261.677 17.8689 261.158 16.8923 260.327 16.1977C259.498 15.449 258.353 15.0364 256.892 14.9599C255.973 14.9117 255.259 15.0642 254.753 15.4174C254.249 15.7165 253.978 16.2177 253.941 16.921C253.893 17.8407 254.424 18.5738 255.535 19.1203C256.648 19.6126 258.437 20.1675 260.9 20.7848C264.166 21.607 266.914 22.4834 269.144 23.4141C271.374 24.3447 273.275 25.8548 274.847 27.9445C276.422 29.9801 277.119 32.7291 276.937 36.1917C276.796 38.8968 275.883 41.2902 274.201 43.3721C272.519 45.454 270.157 47.0391 267.116 48.1275C264.13 49.2187 260.661 49.6609 256.712 49.4539Z" fill="white"/>
<path d="M79.3179 28.2159C79.2036 29.4567 79.0135 30.6361 78.7473 31.7541L49.858 29.0949C49.7653 33.058 51.2294 35.1786 54.2505 35.4566C56.1927 35.6354 57.6773 34.8744 58.7043 33.1735L77.7211 34.924C76.7758 38.1013 75.1319 40.8879 72.7896 43.2837C70.5062 45.6306 67.7035 47.4128 64.3815 48.6304C61.1184 49.799 57.5987 50.2095 53.8223 49.8619C49.2906 49.4447 45.3314 48.1282 41.9446 45.9123C38.6118 43.7013 36.1087 40.7506 34.4354 37.0602C32.821 33.3209 32.2323 29.0775 32.6693 24.33C33.1063 19.5826 34.4572 15.5449 36.7221 12.217C39.0459 8.84019 42.0481 6.36906 45.7285 4.80364C49.4629 3.24319 53.5959 2.67153 58.1276 3.08865C62.6593 3.50578 66.5915 4.81982 69.9243 7.03079C73.3161 9.19278 75.8241 12.0895 77.4485 15.721C79.1267 19.3574 79.7499 23.5224 79.3179 28.2159ZM61.5051 22.251C61.6441 20.7405 61.2629 19.5629 60.3613 18.7182C59.4647 17.8196 58.2881 17.3032 56.8315 17.1692C53.6486 16.8762 51.6458 18.2424 50.8233 21.2678L61.5051 22.251Z" fill="white"/>
<path d="M20.6601 11.8899C22.4555 9.2035 24.6666 7.0517 27.2934 5.4345C29.9193 3.76312 32.6677 2.90238 35.5386 2.85227L35.8747 22.109L30.7558 22.1984C27.3432 22.258 24.8348 22.8978 23.2306 24.1178C21.6805 25.337 20.9319 27.4632 20.9849 30.4966L21.3125 49.2659L3.27451 49.5807L2.47461 3.75451L20.5126 3.43966L20.6601 11.8899Z" stroke="black" stroke-width="1.94646" mask="url(#path-5-outside-2_91_526)"/>
<path d="M110.786 3.1663C116.041 3.1663 120.132 4.92703 123.057 8.44849C126.037 11.97 127.527 16.7375 127.527 22.7511V49.3246H109.567V25.0265C109.567 22.8594 108.971 21.1529 107.78 19.9068C106.642 18.6066 105.098 17.9564 103.147 17.9564C101.143 17.9564 99.5719 18.6066 98.4342 19.9068C97.2964 21.1529 96.7276 22.8594 96.7276 25.0265V49.3246H78.6869V3.49136H96.7276V10.4801C98.1362 8.31305 100.005 6.55232 102.335 5.19791C104.719 3.8435 107.536 3.1663 110.786 3.1663Z" stroke="black" stroke-width="1.94646" mask="url(#path-5-outside-2_91_526)"/>
<path d="M173.179 25.515C173.179 26.7611 173.097 27.953 172.935 29.0907H143.923C144.194 33.0455 145.847 35.023 148.88 35.023C150.831 35.023 152.239 34.1291 153.106 32.3413H172.203C171.553 35.5918 170.172 38.5174 168.059 41.1178C166 43.6641 163.373 45.6957 160.176 47.2127C157.034 48.6754 153.567 49.4068 149.774 49.4068C145.224 49.4068 141.16 48.4587 137.585 46.5626C134.063 44.6664 131.3 41.9576 129.296 38.4361C127.345 34.8605 126.37 30.6889 126.37 25.9214C126.37 21.1538 127.345 17.0093 129.296 13.4879C131.3 9.91223 134.063 7.17632 137.585 5.28015C141.16 3.38397 145.224 2.43589 149.774 2.43589C154.325 2.43589 158.361 3.38397 161.883 5.28015C165.458 7.12215 168.221 9.77679 170.172 13.2441C172.176 16.7114 173.179 20.8017 173.179 25.515ZM154.894 21.208C154.894 19.6911 154.406 18.5534 153.431 17.7949C152.456 16.9822 151.237 16.5759 149.774 16.5759C146.578 16.5759 144.709 18.12 144.167 21.208H154.894Z" stroke="black" stroke-width="1.94646" mask="url(#path-5-outside-2_91_526)"/>
<path d="M241.679 3.49136L230.79 49.3246H210.474L204.948 23.4824L199.097 49.3246H178.78L167.972 3.49136H185.85L189.67 31.3651L195.602 3.49136H214.862L221.119 31.6902L225.02 3.49136H241.679Z" stroke="black" stroke-width="1.94646" mask="url(#path-5-outside-2_91_526)"/>
<path d="M256.712 49.4539C252.384 49.2271 248.579 48.3224 245.299 46.74C242.072 45.1604 239.55 43.0752 237.733 40.4844C235.916 37.8936 234.954 35.0222 234.848 31.8701L252.134 32.776C252.279 34.1399 252.795 35.1705 253.681 35.868C254.621 36.5682 255.821 36.9566 257.282 37.0332C258.201 37.0814 258.942 36.9303 259.503 36.58C260.066 36.1755 260.364 35.6757 260.395 35.0806C260.449 34.0526 259.919 33.2925 258.805 32.8001C257.692 32.3078 255.797 31.7202 253.12 31.0374C249.854 30.2152 247.159 29.3687 245.034 28.4979C242.964 27.6298 241.165 26.2336 239.639 24.309C238.166 22.3873 237.515 19.8034 237.685 16.5573C237.833 13.744 238.696 11.2395 240.276 9.04373C241.913 6.79673 244.226 5.10056 247.216 3.95522C250.208 2.75577 253.787 2.26521 257.953 2.48354C264.121 2.80677 268.856 4.57398 272.16 7.78516C275.518 10.9992 277.421 15.0592 277.869 19.9653L261.882 19.1274C261.677 17.8689 261.158 16.8923 260.327 16.1977C259.498 15.449 258.353 15.0364 256.892 14.9599C255.973 14.9117 255.259 15.0642 254.753 15.4174C254.249 15.7165 253.978 16.2177 253.941 16.921C253.893 17.8407 254.424 18.5738 255.535 19.1203C256.648 19.6126 258.437 20.1675 260.9 20.7848C264.166 21.607 266.914 22.4834 269.144 23.4141C271.374 24.3447 273.275 25.8548 274.847 27.9445C276.422 29.9801 277.119 32.7291 276.937 36.1917C276.796 38.8968 275.883 41.2902 274.201 43.3721C272.519 45.454 270.157 47.0391 267.116 48.1275C264.13 49.2187 260.661 49.6609 256.712 49.4539Z" stroke="black" stroke-width="1.94646" mask="url(#path-5-outside-2_91_526)"/>
<path d="M79.3179 28.2159C79.2036 29.4567 79.0135 30.6361 78.7473 31.7541L49.858 29.0949C49.7653 33.058 51.2294 35.1786 54.2505 35.4566C56.1927 35.6354 57.6773 34.8744 58.7043 33.1735L77.7211 34.924C76.7758 38.1013 75.1319 40.8879 72.7896 43.2837C70.5062 45.6306 67.7035 47.4128 64.3815 48.6304C61.1184 49.799 57.5987 50.2095 53.8223 49.8619C49.2906 49.4447 45.3314 48.1282 41.9446 45.9123C38.6118 43.7013 36.1087 40.7506 34.4354 37.0602C32.821 33.3209 32.2323 29.0775 32.6693 24.33C33.1063 19.5826 34.4572 15.5449 36.7221 12.217C39.0459 8.84019 42.0481 6.36906 45.7285 4.80364C49.4629 3.24319 53.5959 2.67153 58.1276 3.08865C62.6593 3.50578 66.5915 4.81982 69.9243 7.03079C73.3161 9.19278 75.8241 12.0895 77.4485 15.721C79.1267 19.3574 79.7499 23.5224 79.3179 28.2159ZM61.5051 22.251C61.6441 20.7405 61.2629 19.5629 60.3613 18.7182C59.4647 17.8196 58.2881 17.3032 56.8315 17.1692C53.6486 16.8762 51.6458 18.2424 50.8233 21.2678L61.5051 22.251Z" stroke="black" stroke-width="1.94646" mask="url(#path-5-outside-2_91_526)"/>
<rect x="40.6741" y="53.2843" width="211.191" height="5.35276" fill="white" stroke="white" stroke-width="2.43307"/>
<rect x="41.404" y="54.0142" width="209.731" height="3.89291" fill="white" stroke="black" stroke-width="0.973228"/>
</svg>
